<?xml version="1.0" encoding="utf-8"?>
<!-- Generator: Adobe Illustrator 24.1.2, SVG Export Plug-In . SVG Version: 6.00 Build 0)  -->
<svg version="1.1" xmlns="http://www.w3.org/2000/svg" xmlns:xlink="http://www.w3.org/1999/xlink" x="0px" y="0px"
	 viewBox="0 0 1600 1600" style="enable-background:new 0 0 1600 1600;" xml:space="preserve">
<style type="text/css">
	.st0{fill:#FFF0F0;}
	.st1{fill:#FFD7D7;}
	.st2{fill:#FF9494;}
	.st3{fill:none;stroke:#0B1E5B;stroke-width:5.154;stroke-linecap:round;stroke-linejoin:round;stroke-miterlimit:10;}
	.st4{fill:#0B1E5B;}
	.st5{fill:none;stroke:#BBD3F9;stroke-width:2.5;stroke-linecap:round;stroke-linejoin:round;stroke-miterlimit:10;}
	.st6{fill:#BBD3F9;}
	.st7{fill:#7DACEF;}
	.st8{fill:#FFFFFF;}
	.st9{fill:#F77777;}
	.st10{fill:none;stroke:#0B1E5B;stroke-width:2;stroke-linecap:round;stroke-linejoin:round;stroke-miterlimit:10;}
	.st11{fill:none;stroke:#0B1E5B;stroke-width:2.5;stroke-linecap:round;stroke-linejoin:round;stroke-miterlimit:10;}
	.st12{fill:#4694E0;}
	.st13{fill:none;stroke:#0B1E5B;stroke-width:2.577;stroke-linecap:round;stroke-linejoin:round;stroke-miterlimit:10;}
</style>
<g id="background">
	<g>
		<path class="st0" d="M1220,390.4L1220,390.4c-39,16.7-81,12.7-115.1-7c-2,1-4,2-6,3c-42.9,21.7-83.1,42-123.7,53.7
			c-5.5,2.8-11,5.5-16.4,8.3c-66.9,33.8-126.9,64.2-192.7,64.2c-21.9,0-44.5-3.4-68.2-11.1c-68.4-22.3-104.1-67.3-138.6-110.8
			c-34.4-43.3-66.8-84.2-129-93.9c-66.3-10.3-139,18.5-216.9,85.8l26.3,171.6c96.2-97.8,185.7-140.9,266.8-128.3
			c65.5,10.2,98.9,52.4,134.4,97.1c33.7,42.5,68.6,86.5,134.6,108c91.4,29.8,166.9-8.4,254.4-52.6c80-40.5,170.7-86.3,290.9-86.8
			c0.7,0,1.3,0,2,0c26.3,0,52.7,2.2,79.2,6.7C1390.5,412.2,1302.4,355,1220,390.4z"/>
		<path class="st0" d="M1228,687.3c-127.7,0.5-224.6,45.9-310,86c-72.1,33.8-136.8,64.1-207.7,64.1c-23.6,0-47.9-3.4-73.4-11.1
			c-73.7-22.3-112.2-67.2-149.4-110.7c-37.1-43.4-72.2-84.3-139.4-94c-31-4.5-63.3-1.6-96.7,8.5l33.6,219
			c11.1,12.1,21.5,25.2,32.1,38.6c33.7,42.5,68.6,86.5,134.6,108c91.4,29.8,166.9-8.4,254.4-52.6c80-40.5,170.7-86.3,290.9-86.8
			c0.7,0,1.3,0,2,0c118.7,0,239.3,45,358.8,133.8l27.5-280.6C1332.5,694.5,1280.1,687.1,1228,687.3z"/>
		<path class="st0" d="M1320.8,500.1c-118.2,0.5-207.9,45.9-287.1,85.9c-66.9,33.8-126.9,64.2-192.7,64.2
			c-21.9,0-44.5-3.4-68.2-11.1c-68.4-22.3-104.1-67.3-138.6-110.8c-34.4-43.3-66.8-84.2-129-93.9c-79.5-12.4-168.1,31.5-263.9,130.4
			l8.7,56.7c34.3-10.2,67.4-13,99.3-8.4c70.5,10.2,106.5,52.3,144.7,97c36.4,42.5,74.1,86.5,145.4,108.1
			c98.9,29.9,180.5-8.3,275-52.6c86.3-40.4,184.1-86.3,313.6-86.8c0.7,0,1.4,0,2.2,0c51.7,0,103.8,7.4,155.9,22l16.5-168.9
			c0.8-8.5,0.9-16.7,0.3-24.8c-26.8-4.6-53.5-6.9-80.1-6.9C1322.1,500.1,1321.5,500.1,1320.8,500.1z"/>
		<path class="st0" d="M854.4,172.6c-19.7-6.4-34.6-16.7-46.9-28.2l-116.8,61.9c22.5,9.5,36.7,27.4,51.6,46.2
			c17.6,22.2,35.8,45.2,70.1,56.3c47.5,15.5,87-4.5,132.7-27.6c23.5-11.9,48.7-24.6,77.4-33.7l-13.2-37.1
			c-7.9-22.3-20.7-41-36.5-55.6c-27.5,13.4-53.6,23.7-81.8,23.7C879.3,178.6,867.2,176.8,854.4,172.6z"/>
		<path class="st0" d="M706.1,323.3c33.7,42.5,68.6,86.5,134.6,108c47,15.3,89.7,12.7,132.1,0.5c0.1,0,0.2-0.1,0.3-0.1
			c40-11.5,79.6-31.6,122-53c0.5-0.2,0.9-0.5,1.4-0.7c-22.8-15.6-41.3-38.6-51.5-67.4l-19.5-54.9c-28.3,8.9-53.2,21.5-76.4,33.2
			c-35.5,18-67.5,34.1-102.6,34.1c-11.8,0-23.9-1.8-36.7-6c-36.7-12-56.6-37-74.1-59.2c-16.2-20.5-30.5-38.5-55-46.1l-54.7,29
			c-1.3,0.7-2.6,1.4-4,2C657,261.4,681,291.8,706.1,323.3z"/>
		<path class="st0" d="M211.8,372.6c78.4-66.6,152.1-94.9,219.8-84.3c65.5,10.2,98.9,52.4,134.4,97.1c33.7,42.5,68.6,86.5,134.6,108
			c86.5,28.2,158.8-4.4,240.4-45.5c-11.4,1.8-23,2.8-34.7,2.8c-21.9,0-44.5-3.4-68.2-11.1c-68.4-22.3-104.1-67.3-138.6-110.8
			c-25.9-32.6-50.6-63.8-87.8-81.4c-34.2,13.2-72.5,11.1-105.5-6.1l-110.6-57.8c-96.6-50.5-207.5,34-190.5,145L211.8,372.6z"/>
		<path class="st0" d="M998.9,864.8c-0.7,0-1.3,0-2,0c-118.2,0.5-207.9,45.9-287.1,85.9c-66.9,33.8-126.9,64.2-192.7,64.2
			c-21.9,0-44.5-3.4-68.2-11.1c-68.4-22.3-104.1-67.3-138.6-110.8c-7.6-9.6-15.2-19.1-23-28.2L387.8,1520l918.1-1l50.8-519
			C1237.4,910.3,1117.1,864.8,998.9,864.8z"/>
		<path class="st0" d="M857.1,164.5c39,12.7,72.6,1.5,108.7-15.7c-39-31.1-93.5-38.6-141-13.5l-9.2,4.9
			C826.6,150.2,839.8,158.8,857.1,164.5z"/>
	</g>
	<path class="st1" d="M304.8,1520l-80.4-799.1c-2.6-26.2,35.7-32.1,41.1-6.3l140.8,679.2l12.5-540.5c0.6-24,34.6-28.1,40.9-4.9
		L640.9,1520H304.8z"/>
	<path class="st1" d="M1030,1520.2l37.6-373c1.2-12.2-16.7-15-19.2-2.9l-52.8,254.5c-1.8,8.5-14.2,7.4-14.4-1.3l-4.4-188.4
		c-0.3-11.2-16.2-13.1-19.1-2.3l-84.6,313.5H1030z"/>
	<path class="st1" d="M1271,978.3l-55.2,266.4c-2.7,12.9-21.6,11.2-21.9-2l-2.7-117c-0.7-28.6-41.2-33.5-48.6-5.9l-126.9,400.1
		h323.3l97.3-284.8c7.7-27.5-29.5-44-44.8-19.9l-52.2,82.5c-5.9,9.4-20.5,5.1-20.4-6l1.2-308.3C1320.1,953.6,1277,949.1,1271,978.3z
		"/>
	<path class="st1" d="M771.9,1106.9l42.1,203.2c2,9.8,16.5,8.5,16.7-1.5l2.1-89.2c0.5-21.8,31.4-25.5,37.1-4.5l96.8,305.1H720.2
		l-74.2-217.2c-5.8-20.9,22.5-33.5,34.1-15.2l39.8,62.9c4.5,7.2,15.6,3.9,15.6-4.6l-0.9-235.1C734.5,1088,767.3,1084.6,771.9,1106.9
		z"/>
	<path class="st2" d="M633,1519.9c-3.6-58.5-52.2-104.8-111.6-104.8c-6.3,0-12.6,0.5-18.6,1.6c-10.3-51.1-55.5-89.5-109.6-89.5
		c-53.4,0-98.1,37.4-109.2,87.5c-2.8-0.2-5.6-0.3-8.5-0.3c-59.7,0-108.4,46.7-111.6,105.6H633z"/>
	<path class="st2" d="M947.9,1520.2c-1.9-30.2-26.9-54.1-57.6-54.1c-3.3,0-6.5,0.3-9.6,0.8c-5.3-26.3-28.6-46.2-56.5-46.2
		c-27.6,0-50.6,19.3-56.3,45.1c-1.4-0.1-2.9-0.2-4.4-0.2c-30.8,0-55.9,24.1-57.6,54.5H947.9z"/>
	<path class="st2" d="M1425.9,1519.2c-2.4-36.6-32.9-65.5-70-65.3c-4,0-7.9,0.4-11.7,1c-6.6-31.9-34.9-55.9-68.8-55.8
		c-33.4,0.1-61.3,23.6-68.1,55c-1.8-0.1-3.5-0.2-5.3-0.2c-37.3,0.1-67.7,29.5-69.6,66.3L1425.9,1519.2z"/>
</g>
<g id="flowers">
	<path class="st3" d="M1053.7,501v71.8c0,57.8,46.8,104.6,104.6,104.6h0c57.8,0,104.6,46.8,104.6,104.6v735.5"/>
	<g>
		<path class="st4" d="M1053.3,594.4c0,0,27.7-20.7,31.2-53.4l-31.2,33.6L1053.3,594.4z"/>
		<path class="st4" d="M1052.4,558.1c0,0,23.7-17.7,26.7-45.7l-26.7,28.7L1052.4,558.1z"/>
		<path class="st4" d="M1052.4,526.3c0,0,14.5-10.8,16.3-27.8l-16.3,17.5L1052.4,526.3z"/>
		<path class="st4" d="M1053.1,594.4c0,0-27.7-20.7-31.2-53.4l31.2,33.6L1053.1,594.4z"/>
		<path class="st4" d="M1052.3,558.1c0,0-23.7-17.7-26.7-45.7l26.7,28.7L1052.3,558.1z"/>
		<path class="st4" d="M1052.3,526.3c0,0-14.5-10.8-16.3-27.8l16.3,17.5L1052.3,526.3z"/>
		<path class="st4" d="M1052.3,483.3l0,26.3C1052.4,509.6,1044.3,497.2,1052.3,483.3z"/>
		<path class="st4" d="M1052.3,483.3l0,26.3C1052.4,509.6,1060.4,504.3,1052.3,483.3z"/>
	</g>
	<path class="st3" d="M1156.9,675.3V505.8c0-71-57.5-128.5-128.5-128.5h0"/>
	<path class="st3" d="M289.2,710v160.7c0,67,54.3,121.3,121.3,121.3h0c67,0,121.3,54.3,121.3,121.3v402.8"/>
	<path class="st3" d="M379.7,1193.2v35.6c0,30.2,24.5,54.6,54.6,54.6h0c30.2,0,54.6,24.5,54.6,54.6v178.1"/>
</g>
<g id="leaf-1">
	<path class="st4" d="M382.9,1203.3c0,0,24.4-92.4-45.1-132.8l-14.9,30.2c0,0-8.7-40-56.2-71.8l-3.3,43.8c0,0-14.5-48-51.5-71.2
		l-7.5,38.1c0,0-27.9-38.5-52.9-43.8l-9.2,22l-55-21l0.9,0.6l-1-0.6l28.7,37.4l-34.4,4.3c6.3,16.6,63.4,37.5,63.4,37.5l-59.1,2
		c32.8,25.6,105.6,38.6,105.6,38.6l-67.5-1.1c45.4,33.1,106.2,41.7,106.2,41.7l-47.6,7.4c57,48,200.8,39,200.8,39l-0.6-0.5
		L382.9,1203.3z"/>
	<line class="st5" x1="150.2" y1="1044.8" x2="334.9" y2="1174.6"/>
</g>
<g id="leaf-2">
	<path class="st4" d="M457.7,557.9L403.1,592c0,0,53.1-46.4,67.3-83.5L421.1,536c0,0,36.3-45.2,33.3-61.8l-30.3,13.4l5.1-44.7
		l-0.7,1.3l0.6-1.3l-34.6,44.2l-18.3-13.4c-17.8,16.6-21.7,61.8-21.7,61.8l-24.9-27.4c-18.8,37.1-7,83.5-7,83.5l-24.2-34.1
		c-23.1,49.3-10.6,86.3-10.6,86.3l-27-17.4C223.8,693.5,289.2,757,289.2,757l0.3-0.6l-0.4,1.1c0,0,121.9-63.4,144.9-130.7
		l-42.5,17.4C391.5,644.2,436.9,607.2,457.7,557.9z"/>
	<line class="st5" x1="396.4" y1="519.6" x2="309.4" y2="711.8"/>
</g>
<g id="leaf-3">
	<g>
		<line class="st3" x1="1262.8" y1="1095" x2="1113" y2="758.5"/>
		<path class="st4" d="M1215.8,989.3c0,0,37.8-67.4,15.3-137.1l-33.2,96.8L1215.8,989.3z"/>
		<path class="st4" d="M1179.7,908.4c0,0,32.3-57.7,13.1-117.4l-28.4,82.8L1179.7,908.4z"/>
		<path class="st4" d="M1145.6,831.7c0,0,19.7-35.2,8-71.5l-17.3,50.5L1145.6,831.7z"/>
		<path class="st4" d="M1215.8,989.3c0,0-97.8-67.4-137.4-137.1l119.4,96.8L1215.8,989.3z"/>
		<path class="st4" d="M1179.7,908.4c0,0-83.7-57.7-117.6-117.4l102.2,82.8L1179.7,908.4z"/>
		<path class="st4" d="M1145.6,831.7c0,0-51-35.2-71.6-71.5l62.3,50.5L1145.6,831.7z"/>
		<path class="st4" d="M1096.7,721.8l23.9,53.6C1120.5,775.4,1092.9,757.3,1096.7,721.8z"/>
		<path class="st4" d="M1096.7,721.8l23.9,53.6C1120.5,775.4,1132,757.3,1096.7,721.8z"/>
	</g>
</g>
<g id="leaf-4">
	<g>
		<line class="st3" x1="1262.8" y1="1169.7" x2="1412.6" y2="833.3"/>
		<path class="st4" d="M1309.9,1064.1c0,0-37.8-67.4-15.3-137.1l33.2,96.8L1309.9,1064.1z"/>
		<path class="st4" d="M1345.9,983.2c0,0-32.3-57.7-13.1-117.4l28.4,82.8L1345.9,983.2z"/>
		<path class="st4" d="M1380,906.5c0,0-19.7-35.2-8-71.5l17.3,50.5L1380,906.5z"/>
		<path class="st4" d="M1309.9,1064.1c0,0,97.8-67.4,137.4-137.1l-119.4,96.8L1309.9,1064.1z"/>
		<path class="st4" d="M1345.9,983.2c0,0,83.7-57.7,117.6-117.4l-102.2,82.8L1345.9,983.2z"/>
		<path class="st4" d="M1380,906.5c0,0,51-35.2,71.6-71.5l-62.3,50.5L1380,906.5z"/>
		<path class="st4" d="M1429,796.6l-23.9,53.6C1405.1,850.1,1432.7,832.1,1429,796.6z"/>
		<path class="st4" d="M1429,796.6l-23.9,53.6C1405.1,850.1,1393.6,832.1,1429,796.6z"/>
	</g>
</g>
<g id="person">
	<path class="st6" d="M703.5,419.6l-43.9,124.2l-125,25.9c-36.5,7.5-55.8-37,0-84.7l77.9-71.5L703.5,419.6z"/>
	<path class="st7" d="M612.4,413.4l-21.2,144.2l88.6-17.6l105.8-209.7C785.6,330.3,699,318.8,612.4,413.4z"/>
	<path class="st7" d="M626.7,728.9h320.8c0,0,35.6-383.9-135.9-399.6S626.7,728.9,626.7,728.9z"/>
	<path class="st6" d="M702.2,1108.3l-105.2-4.5c-1.9-14.4-14.2-25.5-29.1-25.5c-16.2,0-22.5,7.1-22.5,23.3
		c0,12.4,1.8,25.6,12.9,52.8l17.4,284.1h139.2C714.8,1438.5,737,1158.6,702.2,1108.3z"/>
	<path class="st6" d="M829.6,1112.8c0,0,0,38.4,28.8,56.2c28.8,17.8,204.2,288.3,204.2,288.3l104-4.5c0,0-82-275.1-161.6-332.9
		l-3.2-24.8L829.6,1112.8z"/>
	<polyline class="st4" points="1011.9,1093.9 794.7,1116.5 721.8,728.9 936,728.9 1001.7,1095 	"/>
	<polygon class="st4" points="532.8,1101.1 626.7,728.9 626.7,728.9 839.5,726.7 718.5,1109 	"/>
	<polygon class="st6" points="1172.6,1477.8 1061.2,1477.8 1028.4,1401.9 1138.1,1399.2 	"/>
	<polygon class="st8" points="970.3,1333.2 1116.5,1296.1 1202.7,1483.1 1061.2,1477.8 	"/>
	<polygon class="st8" points="562.8,1328.5 730.9,1328.5 726.4,1438.5 568.5,1438.5 	"/>
	<path class="st4" d="M1039.5,1438.8l-57.6,20.9l-57,15.6c-17.3,4.7-29.3,20.5-29.3,38.5v6.4h285.9c22.8,0,37.4-24.2,26.9-44.4
		l-19.3-37H1039.5z"/>
	<path class="st4" d="M1023.6,1449.9l7.2,19.8h46.3v-27.7c0-11.3-9.6-20.2-20.9-19.3l-15.9,1.2
		C1027.6,1425,1019.3,1437.9,1023.6,1449.9z"/>
	<line class="st5" x1="951.6" y1="1461.3" x2="986.2" y2="1484"/>
	<line class="st5" x1="977.2" y1="1454.2" x2="1011.7" y2="1477"/>
	<line class="st5" x1="1001.7" y1="1446.7" x2="1036.2" y2="1469.4"/>
	<line class="st5" x1="811.8" y1="1073" x2="957.7" y2="1060.8"/>
	<line class="st5" x1="562.8" y1="1055.9" x2="703.3" y2="1062.3"/>
	<g>
		<path class="st9" d="M817.8,268.4c9.3-3.7,11.7,7.9,11.7,7.9c-2.1-11.9-9.2-10.2-12.1-8.9c2.3-2.1,7.2-7.9-3-14.9
			c0,0,10,7.2,2,14.3c1.6-1.8,3.6-5.6-0.9-10c-6.4-6.3-14.7-0.4-16.8-0.9c-2-0.4-1.3-10.2-10.1-8.6c-8.8,1.6-7.9,0.4-11.2-3.9
			c-0.2-0.2-0.4-0.4-0.6-0.6c-2.3-2.6-11.2,3.9-12.9,13.9c-2.4,14.3,6.6,27.5,6.6,27.5l51.8,5.2c0,0,4-3.8,5.7-10.5
			C829.5,272.1,822,269.4,817.8,268.4z"/>
		<path class="st6" d="M814,300.2c4.9,0.3,9.3-3.2,10-8.3c0.6-4.4-2-8.7-6.1-10.3c-2.2-0.8-4.3-0.8-6.3-0.2v0c-2.4-3.4-6-5.8-10-6.8
			l-15.9-3.9c0,0-1.3,2-3.1,5c-0.5-0.2-1-0.4-1.6-0.5c-5.2-1.1-10.3,2.1-11.5,7.3c-1,4.5,1.3,8.9,5.3,10.7
			c-1.1,4.2-1.5,8.2-0.2,11.3c4.4,10.8,15.8,6.5,15.8,6.5l-7.9,31.7c0,0,27,12.2,37.9-0.8L814,300.2z"/>
		<polyline class="st10" points="791.5,282.8 786.1,290.8 789,291.5 		"/>
		<path class="st10" d="M813,289c0,0,1.7-2.1,6.4-1.1"/>
		<path class="st10" d="M815.8,293.3c0,0,2.5-3.1-1.3-5.2"/>
		<path class="st10" d="M774.7,278.6c4.1,2.5,3.9,5.2,3.9,5.2"/>
		<path class="st10" d="M778.2,282.1c-4.2-1.1-4.5,2.9-4.5,2.9"/>
		<path class="st4" d="M790.1,311c0,0,5.8-1.8,9.7-5.6c0,0-4.2,11.3-10.5,10.8L790.1,311z"/>
		<path class="st10" d="M788.6,279.2c0,0-2.4-1-5-0.6"/>
		<circle class="st4" cx="785.1" cy="282.4" r="1.5"/>
		<path class="st10" d="M799.5,284c0,0-1.8-2-4.3-2.7"/>
		<circle class="st4" cx="796.2" cy="286.1" r="1.5"/>
	</g>
	<g>
		<path class="st4" d="M776.4,238.1c0,0,33.7,25.1,55.6,29.1c0,0,10.4-29.1-14.4-38.1C792.7,220.1,776.4,238.1,776.4,238.1z"/>
		<path class="st4" d="M782.2,234.1l-9.2-0.4c-5.5-0.2-8.4,6.4-4.6,10.3c10.1,10.3,29.4,25.4,60.9,34.1c5.3,1.5,9.6-4.4,6.7-9
			l-3-4.9L782.2,234.1z"/>
		<path class="st5" d="M792.2,238.4c0,0,8.2-8.7,25.4-9.3"/>
		<path class="st5" d="M808.4,250c0,0,7.9-9,11.5-19.9"/>
		<path class="st5" d="M830,256.1c0,0,3-11.5-6.1-23.7"/>
	</g>
	<path class="st6" d="M782.4,342.9l12.2,27.6l25.7-28.3C820.3,342.1,798.8,349.8,782.4,342.9z"/>
	<polyline class="st11" points="769.3,342.1 740.6,374.4 786.1,374.4 	"/>
	<circle class="st4" cx="763.3" cy="490.4" r="2.5"/>
	<circle class="st4" cx="737.3" cy="643.2" r="2.5"/>
	<line class="st10" x1="788.8" y1="300.6" x2="795.9" y2="296.7"/>
	<path class="st4" d="M576.9,1438.5l-57.6,20.9l-95.2,17.1c-21,3.8-36.2,22-36.2,43.3l0,0h331c22.8,0,37.4-24.2,26.9-44.4l-19.3-37
		H576.9z"/>
	<path class="st4" d="M561,1449.1l7.2,19.8h46.3v-27.7c0-11.3-9.6-20.2-20.9-19.3l-15.9,1.2C565,1424.1,556.7,1437,561,1449.1z"/>
	<line class="st5" x1="489" y1="1460.4" x2="523.6" y2="1483.1"/>
	<line class="st5" x1="514.6" y1="1453.4" x2="549.1" y2="1476.1"/>
	<line class="st5" x1="539.1" y1="1445.8" x2="573.6" y2="1468.6"/>
	<line class="st5" x1="745.4" y1="854.1" x2="762.5" y2="945.3"/>
	<path class="st11" d="M567.9,1154.5c0,0,16,10.9,24.7-5.1"/>
	<path class="st11" d="M864.2,1163.2c0,0,16,10.9,24.7-5.1"/>
	<path class="st12" d="M675.6,588.4l22.5-6.3c6.4-1.8,6.7-10.8,0.4-13l-14.5-5l25.4-10.6c6.3-2.6,5.3-11.8-1.4-13l-4.1-0.7
		l26.1-20.8c4.9-3.9,2.4-11.8-3.9-12.1l-4.2-0.2l6.9-14.3c3.1-6.5-4.6-12.7-10.3-8.4l-11.9,10.6l-1.1-12.8
		c-0.5-5.8-8.1-8.1-11.3-3.3c-0.1,0.2-0.3,0.4-0.4,0.6l-14.5,26.7l-6.4-12.3c-2.9-5.5-11-4.7-12.6,1.3l-6.4,23l-10.5-8.1
		c-4.4-3.4-10.8-0.4-11,5.2l-1.2,34.9c0,0.1,0,0.2,0,0.2l18.5-3.7c-2.5,11.7-4.7,23.2-6.6,34.4C651.9,588.3,664.1,591.3,675.6,588.4
		z"/>
	<path class="st12" d="M825,721.7l25.4-10.6c6.3-2.6,5.3-11.8-1.4-13l-4.1-0.7l26.1-20.8c4.9-3.9,2.4-11.8-3.9-12.1l-4.2-0.2
		l6.9-14.3c3.1-6.5-4.6-12.7-10.3-8.4L847.5,652l-1.1-12.8c-0.5-5.8-8.1-8.1-11.3-3.3c-0.1,0.2-0.3,0.4-0.4,0.6l-14.5,26.7
		l-6.4-12.3c-2.9-5.5-11-4.7-12.6,1.3l-6.4,23l-10.5-8.1c-4.4-3.4-10.8-0.4-11,5.2l-1.2,34.9c-0.8,7.1,0.5,14.2,3.7,20.4l66.3,0.8
		c-0.7-0.7-1.6-1.3-2.6-1.6L825,721.7z"/>
	<path class="st12" d="M791.7,592.2l-5.1,7.7l-2.3-16.4c-0.6-4.1-6.1-4.9-7.8-1.2l-1.1,2.3l-8.2-18.4c-1.5-3.5-6.5-3.2-7.7,0.4
		l-0.8,2.4l-7.3-6.2c-3.3-2.8-8.1,0.7-6.5,4.7l4.4,8.6l-7.6-1.3c-3.4-0.6-6,3.5-3.7,6.1c0.1,0.1,0.2,0.2,0.3,0.3l13.4,12.6l-8.2,1.8
		c-3.7,0.8-4.4,5.7-1.2,7.6l12.5,7.2l-6.4,4.9c-2.7,2.1-1.9,6.3,1.3,7.2l20.2,6c6.4,2.5,13.6,1.8,19.4-1.9l0,0
		c6.3-3.9,10.1-10.8,10.1-18.2l-0.3-14.1C799.2,590.3,794,588.8,791.7,592.2z"/>
	<path class="st12" d="M787.1,434.9l-24.6-20l29,14.1c-22.7-43.8-66.8-40.3-66.8-40.3C728.4,437,787.1,434.9,787.1,434.9z"/>
	<path class="st12" d="M994.7,532.5c-1.9-11-4.2-21.4-6.8-31.3l-15.3,51.3C981.3,546.1,988.6,539.4,994.7,532.5z"/>
	<path class="st12" d="M676,422.3c-6.8,0-12.4,5.6-12.4,12.4c0,6.8,5.6,12.4,12.4,12.4c6.8,0,12.4-5.6,12.4-12.4
		C688.4,427.9,682.9,422.3,676,422.3z"/>
	<path class="st12" d="M744.8,353.7c6.8,0,12.4-5.6,12.4-12.4c0-3.8-1.7-7.2-4.4-9.5c-5.9,0.9-12.2,2.2-19,3.9
		c-0.9,1.7-1.3,3.6-1.3,5.6C732.4,348.1,737.9,353.7,744.8,353.7z"/>
	<circle class="st12" cx="803.9" cy="513.5" r="12.4"/>
	<polygon class="st12" points="681.6,621.7 676,662.2 657.1,642.6 676,688.9 700.5,704.1 709.2,636.8 688.4,678.8 	"/>
	<line class="st11" x1="795.9" y1="383.8" x2="745.9" y2="702.3"/>
	<line class="st11" x1="679.6" y1="443.8" x2="650.7" y2="548.7"/>
	<circle class="st4" cx="750.3" cy="566.8" r="2.5"/>
	<circle class="st4" cx="776.4" cy="413.9" r="2.5"/>
	<polygon class="st2" points="624.9,698.7 949.2,702.3 947.4,728.9 622.2,728.9 	"/>
	<path class="st12" d="M867.9,363.6c-5.1-1.7-9.7,3.8-7,8.5l10.1,18.2l-11.5,1.4c-4.8,0.6-6.9,6.4-3.7,9.9l20.6,22.4
		c6.1,7.8,15.5,12.2,25.4,12c10.7-0.3,20.5-6,26-15.1l10.1-17.7c1-1.7,1-3.5,0.4-5.1c-0.8-1-1.6-1.9-2.4-2.9c-1.6-1-3.7-1.3-5.7-0.3
		l-12.1,5.8l7.1-17.1c-17.5-17.7-35.7-29.6-52-37.5l6.2,21.3L867.9,363.6z"/>
</g>
<g id="hand-left">
	<g>
		<polygon class="st8" points="909.1,916 806.4,987.8 888.5,1048.2 873,1140.3 951.2,1173.6 962,1268 1177.2,1117.8 1171.7,1036.2 
			1096.2,1006.2 1107.8,898.1 1028.4,833.5 		"/>
		<g>
			<path class="st6" d="M939.6,1147.7l18.6-8c2.3-1,5-0.7,7,0.8l21.3,15.9c2.2,1.7,5.2,1.9,7.7,0.5l25.3-14c1.7-0.9,3-2.6,3.5-4.5
				l12.2-47.4c0.4-1.6,0.2-3.4-0.5-4.9l-15-31c-0.2-0.4-0.4-0.8-0.7-1.2l-26.9-35.7c-2-2.6-5.4-3.5-8.4-2.3l-37.1,15.5
				c-3,1.3-4.8,4.4-4.3,7.7l2.7,17c0.8,4.9-3.7,9.1-8.6,8.1l-11.3-2.5c-3.1-0.7-5.4-3.3-5.6-6.5l-2.8-42.5c-0.2-2.4,0.9-4.7,2.8-6.1
				l41.9-31.8c5.4-4.1,2.6-12.6-4.2-12.8l-42.4-0.9c-1.7,0-3.4,0.6-4.8,1.7l-20.9,17.8c-0.6,0.5-1,1-1.4,1.6l-14.9,23.8
				c-0.6,1-1.5,1.9-2.6,2.5l-20.5,11.2l38.5,28.3l-10.7,63.4c1.3-0.3,2.4-1,3.4-2l23.1-24.4c1.4-1.5,3.4-2.3,5.5-2.2l3.6,0.1
				c6.3,0.3,9.2,8.1,4.5,12.4l-11.1,10.2c-2,1.8-2.8,4.7-2,7.3l12.5,41.2c0.2,0.8,0.3,1.6,0.3,2.4l-0.1,2.6l15.8,6.7l2.2-12.9
				C935.8,1150.7,937.4,1148.7,939.6,1147.7z"/>
			<path class="st6" d="M1071.3,948.8l-36.1,10.7c-1.6,0.5-3,1.5-4,3l-14.5,22.5c-1.5,2.3-1.5,5.2-0.1,7.6l25.3,41.1
				c1.1,1.7,2.8,2.9,4.8,3.3l70.1,12.4c2.8,0.5,5.7-0.8,7.2-3.2l14-21.9c0.2-0.4,0.4-0.8,0.6-1.2l-42.5-16.9l4-37l-22.2-19
				C1076.1,948.6,1073.6,948.1,1071.3,948.8z"/>
			<path class="st6" d="M1037.8,935.7c1.7,2.8,5,4,8.1,3.1l13-3.9c3.3-1,5.4-4.2,5-7.6l-0.7-6.6c-0.4-3.8-3.7-6.5-7.5-6.3l-18.1,1
				c-5.4,0.3-8.5,6.2-5.7,10.8L1037.8,935.7z"/>
			<path class="st6" d="M1090.3,1095.1l-8.2-2.8c-4.7-1.6-9.6,2-9.4,7l0.4,10.3c0.2,4.4,4.3,7.6,8.6,6.7l3.6-0.8
				c1.9-0.4,3.5-1.6,4.6-3.2l4.2-6.7C1096.4,1101.7,1094.6,1096.6,1090.3,1095.1z"/>
			<path class="st6" d="M971.9,1184.2c-3.1-3.8-9.1-3.4-11.6,0.8l-4.6,7.6c-2,3.3-1,7.5,2.2,9.6l5.7,3.8c2.3,1.5,5.3,1.6,7.7,0.1
				l5.4-3.3c3.7-2.3,4.5-7.2,1.8-10.6L971.9,1184.2z"/>
			<path class="st6" d="M1015.9,1184.2c-2.3-3.8-7.4-4.5-10.8-1.6l-6.1,5.4c-2.6,2.3-3.2,6.1-1.4,9.1l0.8,1.3
				c2.1,3.3,6.4,4.4,9.8,2.3l6.8-4.2c3.3-2.1,4.4-6.4,2.3-9.8L1015.9,1184.2z"/>
		</g>
		<line class="st11" x1="903.3" y1="1042.4" x2="965.4" y2="1000.9"/>
		<line class="st11" x1="880.2" y1="1137.1" x2="989.5" y2="1073"/>
		<line class="st11" x1="961.8" y1="1168.9" x2="1052.3" y2="1112.8"/>
		<line class="st11" x1="1165" y1="1042.4" x2="1082" y2="1095"/>
		<line class="st11" x1="1018.5" y1="1055.9" x2="1090.3" y2="1011.2"/>
		<line class="st11" x1="1026.6" y1="952.2" x2="1098.4" y2="901.4"/>
		<g>
			<path class="st6" d="M881.3,606.9l11.2,228.5l-13.3,62.7l2.8,36.8l27-18.9l19.9,43.4l6.2,27.3c1.1,4.7,4.9,8.3,9.7,9.1h0
				c7.5,1.2,14.2-4.8,13.8-12.4l-1.7-29.8l-9.6-38.1l14.6,37.9l3.9,22.8c0.1,8,9.6,12,15.5,6.6l8.2-7.6c18-16.7,28.9-50.1,24.2-74.2
				l-8.3-42.8l-10.9-30.9l-2.4-223.5c-0.3-31.3-26.5-56.1-57.7-54.8h0C903.7,550.1,879.8,576.2,881.3,606.9z"/>
			<polyline class="st11" points="944,904.4 957,953.5 958.4,978.7 			"/>
			<polyline class="st11" points="968.9,894.8 983.7,933.4 989.5,975.1 			"/>
			<polyline class="st11" points="994.9,887.4 1004.7,918.4 1008.5,945.3 			"/>
			<line class="st11" x1="908.4" y1="615.4" x2="881.9" y2="619.4"/>
			<line class="st11" x1="909.1" y1="831.6" x2="892.5" y2="835.4"/>
			<line class="st11" x1="908" y1="884.9" x2="898.6" y2="911.3"/>
		</g>
	</g>
</g>
<g id="sleeve">
	<path class="st7" d="M818.5,330.1c0,0,173.3,7.3,183.2,270.8l-137.8,8.4L818.5,330.1z"/>
	<polyline class="st11" points="805.3,378.3 853.4,404.2 830.5,348.1 	"/>
	<path class="st12" d="M863.4,609.9l15.8-27.5l-9.2,30.9c39.6-29.4,29-72.4,29-72.4C851.8,552.3,863.4,609.9,863.4,609.9z"/>
	<path class="st12" d="M960.9,546.5l26.7-46.6c-4-15.2-8.7-29-13.9-41.6C950.7,495.8,960.9,546.5,960.9,546.5z"/>
	<circle class="st12" cx="920.1" cy="481.3" r="12.4"/>
	<polygon class="st12" points="857.7,438.1 853.2,484.7 826.5,433.7 835.7,473.6 811.1,462 845.2,498.6 873.5,504.1 	"/>
	<polyline class="st11" points="867.9,488.3 876,566.8 857.3,568.8 871.1,608.9 	"/>
</g>
<g id="hand-right">
	<g>
		<path class="st6" d="M710.5,227.7c0,0-47.2-13.1-94.5,36.5l71-0.9L710.5,227.7z"/>
		<path class="st6" d="M534.5,569.6c-51,10.8-98.8-31.4-92.3-83.2c1.8-14.2,7.5-28.2,17.8-40.3l156-181.9l124.5-11.7L616,432.5
			L534.5,569.6z"/>
		<line class="st11" x1="577.2" y1="497.8" x2="616" y2="432.5"/>
		<g>
			<ellipse class="st2" cx="650.7" cy="321.7" rx="19.7" ry="29.4"/>
			<path class="st2" d="M647.5,296.5l27.8-8.5c6-1.8,12.5,0.6,15.7,6c4.1,7.1,7.7,18,3,31.7c-1.2,3.6-3.9,6.4-7.4,7.9L657,346.4
				L647.5,296.5z"/>
			<ellipse class="st8" cx="649.8" cy="321.7" rx="14.2" ry="21.2"/>
			<path class="st2" d="M677.3,293.6l46.3-12.9c4.6-1.4,9.6,0.8,11.5,5.1c1.3,3,2.2,7,1.1,11.8c-0.6,3-2.7,5.6-5.6,6.8l-49.8,24.4
				L677.3,293.6z"/>
			<path class="st2" d="M730.2,281l3-0.7c2.8-0.7,5.7,0.4,7.3,2.7c1.3,1.9,2.5,4.7,2.5,8.6c0,2.8-1.7,5.2-4.2,6.3l-6.2,2.7
				L730.2,281z"/>
			<ellipse class="st2" cx="690.1" cy="334.9" rx="19.7" ry="29.4"/>
			<path class="st2" d="M687,309.7l27.8-8.5c6-1.8,12.5,0.6,15.7,6c4.1,7.1,7.7,18,3,31.7c-1.2,3.6-3.9,6.4-7.4,7.9l-29.6,12.9
				L687,309.7z"/>
			<ellipse class="st8" cx="689.2" cy="334.9" rx="14.2" ry="21.2"/>
			<path class="st2" d="M716.8,306.9l46.3-12.9c4.6-1.4,9.6,0.8,11.5,5.1c1.3,3,2.2,7,1.1,11.8c-0.6,3-2.7,5.6-5.6,6.8l-49.8,24.4
				L716.8,306.9z"/>
			<path class="st11" d="M679.8,309.9c-5.6,5.2-9.3,14.4-9.3,25"/>
			<path class="st11" d="M714.8,301.2l-18.6,5.7c-1.9-0.9-3.9-1.4-6-1.4"/>
			<line class="st11" x1="763.1" y1="293.9" x2="727.7" y2="303.8"/>
			<path class="st2" d="M769.7,294.3l3-0.7c2.8-0.7,5.7,0.4,7.3,2.7c1.3,1.9,2.5,4.7,2.5,8.6c0,2.8-1.7,5.2-4.2,6.3l-6.2,2.7
				L769.7,294.3z"/>
			<path class="st11" d="M657.1,293.5c0,0,7.5,3.7,9.7,10.3"/>
			<path class="st11" d="M685.6,288.9c0,0,5.6,2.7,7.2,7.7"/>
			<path class="st11" d="M732.8,319.6c0,0,3.6,5.7,1.8,15.4"/>
			<path class="st11" d="M774.4,301.2c0,0,2.3,3.2,0.8,11.3"/>
			<path class="st11" d="M730.2,281c0,0,4.5,1.7,6.5,9.3"/>
		</g>
		<g>
			<path class="st6" d="M721.8,231.3l9.3,4.5c6.3,3.1,10.1,9.7,9.4,16.7l-2.2,22.9c-0.4,3.8-3.6,6.7-7.4,6.6l-0.7,0
				c-3.1-0.1-5.8-2.1-6.8-5.1l-5.9-18.7l-0.5,23.5l-0.1,5c-0.1,3.2-2.3,6-5.4,6.9h0c-3.8,1-7.7-1.2-8.8-4.9l-7.3-24l-0.6,27.4
				c-0.1,3.1-2.1,5.9-5.1,6.8l-0.2,0c-3.7,1.2-7.7-0.8-9-4.5l-6.7-18.9l-3,22.8c-0.4,3.2-2.9,5.8-6.1,6.2l-3.7,0.6
				c-3.4,0.5-6.7-1.4-7.9-4.7c-4.2-11.5-12.5-37.5-4.9-47.7C658.1,239.4,699.2,218.7,721.8,231.3z"/>
			<line class="st11" x1="645.1" y1="272.6" x2="651.3" y2="295.3"/>
			<line class="st11" x1="670.4" y1="261.2" x2="680.5" y2="294.3"/>
			<line class="st11" x1="700.6" y1="258.4" x2="701.9" y2="286.8"/>
			<line class="st11" x1="722" y1="246.9" x2="723.5" y2="276.9"/>
		</g>
	</g>
</g>
<g id="bird">
	<g>
		<path class="st9" d="M1025.6,246.4c2.5-3.1,3.8-7.3,3.1-11.7c-1-6.8-6.6-12.3-13.4-13c-9.2-1-17.1,6.2-17.1,15.2
			c0,0.1,0,0.2,0,0.3c0.1,4.3-1.4,8.4-4.2,11.7c-14.4,16.9-22.6,39.2-21.1,63.4c2.7,45.2,39.4,81.6,84.6,83.8
			c32.7,1.6,61.7-14.3,78.6-39.1L1025.6,246.4z"/>
		<path class="st9" d="M1100.1,371.7c-8.9-10.3,6.9-25.5,17.3-32.6l103.5,93.1c7.5,6.7,0.5,19-9.1,15.8
			C1182.5,438.4,1139.4,417.4,1100.1,371.7z"/>
		<path class="st9" d="M1031.5,351c-8.9-10.3,6.9-25.5,17.3-32.6l146,123.3C1194.8,441.7,1099.5,430.1,1031.5,351z"/>
		<path class="st4" d="M1019.2,239.5l3.2-2.8c2.1-1.9,5.4-1.5,7,0.8c1.7,2.6,3.4,6.6,3.2,12.1c-0.1,2.6-3.5,3.7-5,1.6
			c-1.7-2.3-4.1-4.6-7.3-5.9C1017.9,244.3,1017.3,241.2,1019.2,239.5z"/>
		<path class="st13" d="M1001,272.2c0,0-16.5,83.8,61,97.6"/>
		<circle class="st8" cx="1012.3" cy="233.3" r="3.2"/>
		<circle class="st4" cx="1012.3" cy="233.3" r="1.5"/>
		<line class="st13" x1="1100.1" y1="371.7" x2="1172.3" y2="428.3"/>
		<line class="st13" x1="1018" y1="303.3" x2="1025.1" y2="353.7"/>
		<line class="st13" x1="1040.4" y1="335.4" x2="1043.3" y2="354.9"/>
	</g>
</g>
</svg>
