<?xml version="1.0" encoding="utf-8"?>
<!-- Generator: Adobe Illustrator 24.1.2, SVG Export Plug-In . SVG Version: 6.00 Build 0)  -->
<svg version="1.1" xmlns="http://www.w3.org/2000/svg" xmlns:xlink="http://www.w3.org/1999/xlink" x="0px" y="0px"
	 viewBox="0 0 1600 1100" style="enable-background:new 0 0 1600 1100;" xml:space="preserve">
<style type="text/css">
	.st0{fill:#FFF0F0;}
	.st1{fill:#FF9494;}
	.st2{fill:none;stroke:#0B1E5B;stroke-width:2.5;stroke-linecap:round;stroke-linejoin:round;stroke-miterlimit:10;}
	.st3{fill:#0B1E5B;}
	.st4{fill:none;stroke:#BBD3F9;stroke-width:2.5;stroke-linecap:round;stroke-linejoin:round;stroke-miterlimit:10;}
	.st5{fill:#FFD7D7;}
	.st6{fill:#FFFFFF;stroke:#0B1E5B;stroke-width:2.5;stroke-linecap:round;stroke-linejoin:round;stroke-miterlimit:10;}
	.st7{fill:#BBD3F9;}
	.st8{fill:none;stroke:#0B1E5B;stroke-width:1.5;stroke-linecap:round;stroke-linejoin:round;stroke-miterlimit:10;}
	.st9{fill:#7DACEF;}
	.st10{fill:#FFFFFF;}
	.st11{fill:#F77777;}
	.st12{fill:none;stroke:#0B1E5B;stroke-width:2;stroke-linecap:round;stroke-linejoin:round;stroke-miterlimit:10;}
</style>
<g id="background">
	<g>
		<path class="st0" d="M353,578.2c138.9-9,241.5-60.2,332-105.3c101.3-50.5,188.8-94.1,300.9-70.7c81,16.9,125.4,58.4,168.3,98.6
			c43.1,40.3,83.7,78.3,157.8,83.4c45.2,3.1,92.1-6.6,140.4-29.1c-19.1-38.3-43.5-74.1-72.4-106.7c-21.9,6.3-43.5,9.4-64.7,9.4
			c-5.6,0-11.2-0.2-16.8-0.7c-71.2-5.6-109.9-44.7-150.9-86.1c-39.3-39.6-79.9-80.6-153.2-97.5c-101.6-23.4-181.5,19.3-274.1,68.7
			c-84.3,45-179.8,96-310,104.5c-25.1,1.6-50.5,1.6-76-0.1c-46.4,35.3-87.5,76.8-121.2,125.8C260.1,579.3,307,581.2,353,578.2z"/>
		<path class="st0" d="M1152.4,366.1c40.1,40.4,77.9,78.6,146.5,84c24.8,2,50-0.6,75.8-7.6c-101.6-110.9-256.2-182.3-430-182.5
			c16.5,0.5,33.5,2.6,51.1,6.7C1071.1,284.1,1112.5,325.8,1152.4,366.1z"/>
		<path class="st0" d="M409.8,439.9c128.6-8.4,223.5-59,307.1-103.7c70.1-37.5,133.1-71.1,204-75.7c-17.1,0.6-34.3,1.9-51.7,3.9
			C686.8,285.7,489.8,332.7,343,440.3C365.4,441.5,387.7,441.4,409.8,439.9z"/>
		<path class="st0" d="M1236.7,924.2c-71.2-5.6-109.9-44.7-150.9-86.1c-39.3-39.6-79.9-80.6-153.2-97.5
			C831,717.3,751.1,760,658.5,809.4c-84.3,45-179.8,96-310,104.5c-62.7,4.1-127.1-2.3-191.2-18.9c-13.6-3.5-27.2-7.5-40.9-12
			c-1.8,47.5,5.3,91.5,19.7,132.1h1297.5c26-52.5,45.4-109.8,57.5-171.3c2.9-14.5,5-28.9,6.4-43.2
			c-84.9,82.5-166.7,124.2-244.1,124.2C1247.9,924.9,1242.3,924.7,1236.7,924.2z"/>
		<path class="st0" d="M1322.7,756.1c-71.2-5.6-109.9-44.7-150.9-86.1c-39.3-39.6-79.9-80.6-153.2-97.5
			c-101.6-23.4-181.6,19.3-274.1,68.7c-84.3,45-179.8,96-310,104.5c-62.7,4.1-127.1-2.3-191.2-18.9c-30.6-7.9-61.6-18.3-92.7-31.1
			c-18.7,53.3-30.5,113.1-33.8,179.9c14.2,4.7,28.3,8.8,42.3,12.5c63.4,16.4,127,22.7,189,18.7c128.6-8.4,223.5-59,307.1-103.7
			c93.8-50.1,174.8-93.4,279-69.4c75.3,17.3,116.6,59,156.6,99.3c40.1,40.4,77.9,78.6,146.5,84c82.1,6.5,169.7-36.3,261.4-127.3
			c2.3-29.4,1.6-58.3-1.7-86.5c-54.1,35.5-106.7,53.4-157.3,53.4C1333.9,756.8,1328.3,756.6,1322.7,756.1z"/>
		<path class="st0" d="M1328.5,591.8c-5.7,0-11.4-0.2-17-0.6c-76.6-5.3-118.1-44.2-162.1-85.3c-42.2-39.5-85.8-80.3-164.9-96.8
			c-109.7-22.9-196.2,20.2-296.3,70.1c-91.1,45.4-194.3,96.9-334.6,106c-47.7,3.1-96.1,1-144.8-6.2c-22.2,33.3-40.9,69.9-55.7,110.3
			c31,12.7,61.7,23,92.1,30.9c63.4,16.4,127,22.7,189,18.7c128.6-8.4,223.5-59,307.1-103.7c93.8-50.1,174.8-93.4,279-69.4
			c75.3,17.3,116.6,59,156.6,99.3c40.1,40.4,77.9,78.6,146.5,84c55.2,4.4,112.9-13.6,172.7-53.4c-6.4-47.1-20.2-92.2-40.5-134.3
			C1412.1,581.6,1369.7,591.8,1328.5,591.8z"/>
	</g>
	<path class="st1" d="M1401.8,942h-124.1c2.5-8.8,3.9-18.2,3.9-27.8c0-55.5-45.4-101-101-101H937c-0.6,0-1.3,0-1.9,0
		c-0.6,0-1.2,0-1.9,0h-56.9c0.4-4.9,0.7-9.8,0.7-14.8c0-88.2-71.5-159.7-159.7-159.7s-159.7,71.5-159.7,159.7c0,5,0.2,9.9,0.7,14.8
		h-76c-55.5,0-101,45.4-101,101c0,12.7,2.4,24.9,6.7,36.1H132.4c-17.8,0-32.4,14.6-32.4,32.4l0,0c0,17.8,14.6,32.4,32.4,32.4h321h29
		h450.8h3.8h36.1h207.5h221.2c20.1,0,36.6-16.5,36.6-36.6l0,0C1438.4,958.5,1422,942,1401.8,942z"/>
	<path class="st2" d="M717.4,638.8c-88.2,0-159.7,71.5-159.7,159.7"/>
	<path class="st2" d="M482.4,813.3c-55.5,0-101,45.4-101,101c0,12.7,2.4,24.9,6.7,36.1"/>
	<polygon class="st3" points="444.5,1015.2 251,1015.2 284.7,897.7 478.2,897.7 	"/>
	<path class="st2" d="M346.2,897.7c0,0,5.3-22,32.7-22c27.4,0,27.4,22,27.4,22"/>
	<line class="st4" x1="303.2" y1="909" x2="453.3" y2="909"/>
	<line class="st2" x1="171.3" y1="1015.2" x2="1444.8" y2="1015.2"/>
</g>
<g id="cloud-4">
	<path class="st5" d="M235.6,471.2H281c-0.8-2.7-1.2-5.6-1.2-8.6c0-17.2,14.1-31.3,31.3-31.3h26.3c0.2,0,0.4,0,0.6,0
		c0.2,0,0.4,0,0.6,0h17.7c-0.1-1.5-0.2-3-0.2-4.6c0-27.4,22.2-49.5,49.5-49.5c27.4,0,49.5,22.2,49.5,49.5c0,1.5-0.1,3.1-0.2,4.6
		h23.6c17.2,0,31.3,14.1,31.3,31.3c0,3.9-0.7,7.7-2.1,11.2H539c5.5,0,10.1,4.5,10.1,10.1l0,0c0,5.5-4.5,10.1-10.1,10.1h-51.5h-9
		H338.5h-1.2h-11.2h-64.4h-26.2c-6.2,0-11.4-5.1-11.4-11.4l0,0C224.2,476.3,229.3,471.2,235.6,471.2z"/>
</g>
<g id="cloud-3">
	<path class="st5" d="M952.1,581.3h45.4c-0.8-2.7-1.2-5.6-1.2-8.6c0-17.2,14.1-31.3,31.3-31.3h26.3c0.2,0,0.4,0,0.6,0
		c0.2,0,0.4,0,0.6,0h17.7c-0.1-1.5-0.2-3-0.2-4.6c0-27.4,22.2-49.5,49.5-49.5c27.4,0,49.5,22.2,49.5,49.5c0,1.5-0.1,3.1-0.2,4.6
		h23.6c17.2,0,31.3,14.1,31.3,31.3c0,3.9-0.7,7.7-2.1,11.2h31.3c5.5,0,10.1,4.5,10.1,10.1l0,0c0,5.5-4.5,10.1-10.1,10.1H1204h-9
		h-139.9h-1.2h-11.2h-64.4h-26.2c-6.2,0-11.4-5.1-11.4-11.4l0,0C940.8,586.4,945.9,581.3,952.1,581.3z"/>
</g>
<g id="cloud-2">
	<path class="st5" d="M1262.9,466.5h31.3c-0.5-1.9-0.8-3.9-0.8-5.9c0-11.9,9.7-21.6,21.6-21.6h18.1c0.1,0,0.3,0,0.4,0
		c0.1,0,0.3,0,0.4,0h12.2c-0.1-1-0.1-2.1-0.1-3.2c0-18.9,15.3-34.2,34.2-34.2s34.2,15.3,34.2,34.2c0,1.1-0.1,2.1-0.1,3.2h16.3
		c11.9,0,21.6,9.7,21.6,21.6c0,2.7-0.5,5.3-1.4,7.7h21.6c3.8,0,6.9,3.1,6.9,6.9l0,0c0,3.8-3.1,6.9-6.9,6.9h-35.5h-6.2h-96.5h-0.8
		h-7.7h-44.4h-18.1c-4.3,0-7.8-3.5-7.8-7.8l0,0C1255,470.1,1258.5,466.5,1262.9,466.5z"/>
</g>
<g id="cloud-1">
	<path class="st5" d="M292.1,667h31.3c-0.5-1.9-0.8-3.9-0.8-5.9c0-11.9,9.7-21.6,21.6-21.6h18.1c0.1,0,0.3,0,0.4,0
		c0.1,0,0.3,0,0.4,0h12.2c-0.1-1-0.1-2.1-0.1-3.2c0-18.9,15.3-34.2,34.2-34.2s34.2,15.3,34.2,34.2c0,1.1-0.1,2.1-0.1,3.2h16.3
		c11.9,0,21.6,9.7,21.6,21.6c0,2.7-0.5,5.3-1.4,7.7h21.6c3.8,0,6.9,3.1,6.9,6.9l0,0c0,3.8-3.1,6.9-6.9,6.9h-35.5h-6.2h-96.5h-0.8
		h-7.7h-44.4h-18.1c-4.3,0-7.8-3.5-7.8-7.8l0,0C284.3,670.5,287.8,667,292.1,667z"/>
</g>
<g id="table">
	<line class="st2" x1="1180.6" y1="1015.2" x2="1180.6" y2="520"/>
	<g>
		<line class="st2" x1="1281.5" y1="663.4" x2="1180.6" y2="1015.2"/>
		<path class="st3" d="M1226.8,701.3c0,0-32.9,31.6-17.5,42.2c15.4,10.6-20.8,45.3,2.6,51.5c23.4,6.3-1.6,30.5,20.9,38.1l9.2-33.1
			c0,0,4.3-18.1-7.9-22.1s3-18-0.1-32C1231.1,732,1214.4,737.2,1226.8,701.3z"/>
		<path class="st3" d="M1318.9,726.1c0,0,18.4,39.1-8.2,52.2c-26.6,13.1-6.5,56.1-39.9,63.8s-20.8,37.8-54.1,47.2l11.8-41.1
			c0,0,8.9-22.3,26.9-27.3s9.1-22.3,22.8-39.6S1308.8,770.5,1318.9,726.1z"/>
		<path class="st3" d="M1262.6,643.8c0,0-19.2,18.5-10.2,24.6s-12.1,26.5,1.5,30.1c13.7,3.7-1.7,17.5,11.4,22l6.2-19
			c0,0,2.5-10.6-4.6-12.9c-7.1-2.4,1.7-10.5,0-18.7C1265.1,661.7,1255.4,664.8,1262.6,643.8z"/>
		<path class="st3" d="M1316.7,659.9c0,0,11.2,23.9-5,31.8c-16.2,8-3.9,34.2-24.3,38.9c-20.4,4.7-13.1,23.1-33.4,28.8l7.2-25.1
			c0,0,5.8-13.5,16.8-16.6c10.9-3.1,5.6-13.6,13.9-24.2C1300.2,683.1,1310.5,687,1316.7,659.9z"/>
		<path class="st3" d="M1324.6,602.6c0,0,8.7,18.5-3.9,24.6s-3,26.5-18.8,30.1c-15.8,3.7-9.3,17.8-25,22.3l4-16.8
			c0,0,5.3-13.1,13.7-15.4c8.5-2.4,4.3-10.5,10.8-18.7C1311.8,620.5,1319.8,623.6,1324.6,602.6z"/>
	</g>
	<g>
		<polygon class="st6" points="1242,519.8 1113.3,519.8 1155.9,371.1 1284.6,371.1 		"/>
		<line class="st2" x1="1166.2" y1="391.8" x2="1250.1" y2="391.8"/>
		<line class="st2" x1="1159.9" y1="414" x2="1239.2" y2="414"/>
		<line class="st2" x1="1153.5" y1="436.2" x2="1248.2" y2="436.2"/>
		<line class="st2" x1="1147.1" y1="458.4" x2="1198" y2="458.4"/>
		<line class="st2" x1="1140.8" y1="480.6" x2="1220.1" y2="480.6"/>
		
			<ellipse transform="matrix(0.7556 -0.655 0.655 0.7556 -48.2015 869.0748)" class="st2" cx="1140.6" cy="499.1" rx="5.9" ry="4.4"/>
		<ellipse transform="matrix(0.7556 -0.655 0.655 0.7556 -43.9338 880.5134)" class="st2" cx="1158" cy="499.1" rx="5.9" ry="4.4"/>
		
			<ellipse transform="matrix(0.7556 -0.655 0.655 0.7556 -39.6661 891.952)" class="st2" cx="1175.5" cy="499.1" rx="5.9" ry="4.4"/>
	</g>
</g>
<g id="arm">
	<g>
		<path class="st7" d="M695.6,253.6l-3.7-42.7L660,185.6l-63,22l0,0c-15.4,5.4-26.5,20-26.5,37.2c0,21.8,17.7,39.4,39.4,39.4
			c5.1,0,9.9-1,14.4-2.7l0,0L695.6,253.6z"/>
		<path class="st3" d="M735.1,162.9c-4.3,0-8.5,0.7-12.3,2l0,0L660,185.6l35.6,68l31.9-12.5c2.5,0.5,5,0.7,7.6,0.7
			c21.8,0,39.4-17.7,39.4-39.4C774.5,180.6,756.8,162.9,735.1,162.9z"/>
	</g>
</g>
<g id="body">
	<g>
		<path class="st8" d="M933.3,813.3"/>
		<polygon class="st7" points="674.5,983.1 589.5,983.1 606.6,925.2 694.9,925.2 		"/>
		<polygon class="st7" points="952.5,983.1 867.5,983.1 859.9,925.2 946,925.2 		"/>
		<polygon class="st9" points="869,413.9 978.9,947.2 839.2,947.2 756.3,559.5 764.4,413.9 		"/>
		<polygon class="st9" points="703.2,412.5 582.1,947.2 719.2,947.2 820.3,413.9 		"/>
		<line class="st2" x1="606.6" y1="925.2" x2="708.3" y2="925.2"/>
		<line class="st2" x1="855.3" y1="925.2" x2="957.1" y2="925.2"/>
		<line class="st2" x1="744.8" y1="519.2" x2="773.4" y2="648.9"/>
		<polygon class="st10" points="589.5,967.4 684.8,967.4 676.6,989.7 584.4,987.8 		"/>
		<polygon class="st10" points="859.9,967.4 957.1,967.4 959.1,989.7 859.9,987.8 		"/>
		<polygon class="st3" points="574.9,983.1 481,1000 460.8,1004.2 460.8,1015.2 670.3,1015.2 683,983.1 		"/>
		<polygon class="st3" points="856.6,983.1 809.4,1000 794.3,1004.2 794.3,1015.2 970.3,1015.2 961,983.1 		"/>
		<path class="st3" d="M943.1,214.8c-74.8-79.4-134-65.6-134-65.6s-13.2,13.6-30.8,1.4l-52.7,13.6l0,0
			c-17.2,4.2-29.9,19.8-29.9,38.3c0,16,9.5,29.8,23.3,36l0,0l-4.2,92.5l-18.6,82.6l172.9,1.4l-8.2-163l11.9,14.6L943.1,214.8z"/>
		<path class="st7" d="M875.4,264.2l39,38.4l-57.8,158.9l32.6,74.4l98.5-196.3c10.5-20.9,8.1-45.9-6.2-64.4L940,216.1L875.4,264.2z"
			/>
		<line class="st2" x1="912" y1="303.4" x2="949.4" y2="294.3"/>
		<line class="st2" x1="897.9" y1="556.1" x2="852.9" y2="453.3"/>
		<line class="st4" x1="842.1" y1="227.1" x2="860.8" y2="251.9"/>
		<path class="st4" d="M786.1,166.5c0,0,19.6,8,28.6-4.9"/>
		<path class="st2" d="M640.1,736.3c0,0,15.2,19.9,34.6,0"/>
		<path class="st2" d="M817.3,740.7c0,0,15.2,19.9,34.6,0"/>
		<line class="st4" x1="720" y1="213.5" x2="717.9" y2="259.9"/>
	</g>
</g>
<g id="head">
	<g>
		<path class="st11" d="M782.1,96.3c6.1-6.6,12.5,1.8,12.5,1.8c-6.4-8.8-11.4-4.7-13.3-2.5c1.1-2.6,2.7-9.2-8.3-10.8
			c0,0,10.9,1.9,7.2,10.8c0.6-2.1,0.7-5.9-4.6-7.8c-7.6-2.6-12.1,5.4-13.9,5.9c-1.8,0.4-5-7.7-11.5-3c-6.5,4.7-6.2,3.4-10.5,1.2
			c-0.2-0.1-0.5-0.2-0.7-0.3c-2.9-1.2-8.4-2-10.6,7.8c0,0,1.9-7.4,7.5-7.4c-2.7,1.7-4.4,7.1-1.9,15.9c3.6,12.5,16.1,19.7,16.1,19.7
			l43.9-16c0,0,1.8-4.7,0.4-10.7C793,94.7,785.9,95.4,782.1,96.3z"/>
		<path class="st7" d="M791.5,123.4c4-1.7,6.3-6.3,4.9-10.6c-1.2-3.8-5-6.3-9-5.9c-2.1,0.2-3.8,1.1-5.2,2.3l0,0
			c-3.3-1.8-7.1-2.3-10.8-1.6l-14.4,3c0,0-0.3,2.1-0.5,5.3c-0.5,0-1,0.1-1.5,0.2c-4.6,1.1-7.5,5.8-6.4,10.4c1,4,4.5,6.6,8.4,6.6
			c0.7,3.8,2,7.2,4.2,9.2c7.8,7,15.3-0.9,15.3-0.9l6.4,24.5c0,0,30,9,33.7-5.7L791.5,123.4z"/>
		<polyline class="st12" points="766.5,118.2 765.3,126.8 767.9,126.2 		"/>
		<path class="st12" d="M786.3,114.8c0,0,0.5-2.4,4.7-3.4"/>
		<path class="st12" d="M790.2,117.2c0,0,0.8-3.5-3.1-3.7"/>
		<path class="st12" d="M756.4,124c0,0-0.9-2.2-5.2-2.6"/>
		<path class="st12" d="M752.9,126.9c0,0-1.3-3.4,2.5-4.1"/>
		<path class="st3" d="M776.4,141.5c0,0,4-3.7,5.7-8.3c0,0,1.1,10.8-4.3,12.8L776.4,141.5z"/>
		<path class="st12" d="M763.1,118.7c0,0-2.4,0.1-4.3,1.5"/>
		<circle class="st3" cx="761.2" cy="120.8" r="1.5"/>
		<path class="st12" d="M773.8,118.3c0,0-2.2-0.9-4.5-0.5"/>
		<circle class="st3" cx="771.6" cy="119.5" r="1.5"/>
		<line class="st12" x1="769.6" y1="130.9" x2="773.8" y2="128"/>
	</g>
</g>
<g id="forearm">
	<g>
		<path class="st7" d="M802.6,377l-4.9-15.2c-3.5-10.8-34.9-26.4-43.8-33.4L638.1,217.2l0,0c-7.2-7.3-17.1-11.8-28.2-11.8
			c-21.8,0-39.4,17.7-39.4,39.4c0,11.6,5,22.1,13.1,29.3l0,0l0.1,0c0.7,0.7,1.5,1.3,2.3,1.9L738,402.1l4.2,8.7
			c4.3,9,15.3,12.6,24.1,7.8l25.1-13.6C801.4,399.6,806.1,387.9,802.6,377z"/>
		
			<ellipse transform="matrix(0.855 -0.5186 0.5186 0.855 -68.1778 431.6322)" class="st6" cx="737.8" cy="337.7" rx="12.1" ry="9.1"/>
		<path class="st8" d="M759.9,329c0,0-5.6-2.2-12.2,1.8"/>
		<polyline class="st2" points="736.2,332.5 737.8,337.7 742.9,335.6 		"/>
		<path class="st2" d="M727.3,343.8c0,0-18.7,8.9-20.4,32.5"/>
		<line class="st2" x1="738" y1="402.1" x2="752.4" y2="410.5"/>
		<line class="st2" x1="766.8" y1="397.1" x2="766.3" y2="418.7"/>
		<line class="st2" x1="779.9" y1="387" x2="780.4" y2="411"/>
		<line class="st2" x1="791.7" y1="380.8" x2="792.2" y2="404.8"/>
		<path class="st2" d="M754.7,386.4c0,0,5.2,1.4,6.3-2.9"/>
		<path class="st2" d="M766.8,380.5c0,0,5.2,1.4,6.3-2.9"/>
		<path class="st2" d="M778.8,374.6c0,0,5.2,1.4,6.3-2.9"/>
		<path class="st2" d="M790.9,368.8c0,0,5.2,1.4,6.3-2.9"/>
	</g>
</g>
</svg>
