<?xml version="1.0" encoding="utf-8"?>
<!-- Generator: Adobe Illustrator 24.1.2, SVG Export Plug-In . SVG Version: 6.00 Build 0)  -->
<svg version="1.1" xmlns="http://www.w3.org/2000/svg" xmlns:xlink="http://www.w3.org/1999/xlink" x="0px" y="0px"
	 viewBox="0 0 1600 1100" style="enable-background:new 0 0 1600 1100;" xml:space="preserve">
<style type="text/css">
	.st0{fill:#FFF0F0;}
	.st1{fill:#BBD3F9;}
	.st2{fill:#FFD7D7;}
	.st3{fill:#FFFFFF;}
	.st4{fill:none;stroke:#0B1E5B;stroke-width:2.5;stroke-linecap:round;stroke-linejoin:round;stroke-miterlimit:10;}
	.st5{fill:#0B1E5B;}
	.st6{fill:#F77777;}
	.st7{fill:none;stroke:#BBD3F9;stroke-width:2.5;stroke-linecap:round;stroke-linejoin:round;stroke-miterlimit:10;}
	.st8{fill:none;stroke:#0B1E5B;stroke-width:1.5;stroke-linecap:round;stroke-linejoin:round;stroke-miterlimit:10;}
	.st9{fill:none;stroke:#0B1E5B;stroke-width:2;stroke-linecap:round;stroke-linejoin:round;stroke-miterlimit:10;}
	.st10{fill:#7DACEF;}
</style>
<g id="background">
	<g>
		<path class="st0" d="M908.1,309c73.9,10.9,126.7-28.2,187.9-73.5c51.2-37.9,108.7-80.4,188.5-99.8
			c-76.5-57.6-180.6-66.2-300.8,39.4c-122.5,107.7-219.6,0.1-295.5,12.3c44,3.7,72.6,29.4,102.8,56.4
			C822.3,272,854.8,301.1,908.1,309z"/>
		<path class="st0" d="M933,317.9c-8.4,0-17-0.6-25.9-1.9c-55.4-8.2-88.6-38-120.8-66.8c-32-28.7-62.2-55.8-111-55.1
			c-2.7,0-5.3,0.2-7.9,0.4c-1.1,0.6-2.3,1.2-3.4,1.9c-69.4,41.5-54.4,95.4-99.1,113.3c31,19.6,54.8,47.7,79.4,76.7
			c39,46,79.4,93.6,153.6,115.3c102.9,29.9,185.4-15.2,281-67.5c87.1-47.6,185.8-101.6,318.8-106.5c3.1-0.1,6.3-0.2,9.4-0.3
			c-19.9-70.2-59.9-141.1-115.4-186.1c-81.3,18.4-139.6,61.5-191.4,99.9C1045,282,996.5,317.9,933,317.9z"/>
		<path class="st0" d="M927.1,794.8c-48.6,24.6-94.5,47.8-141.2,60.6c-25.2,6.9-49.1,10.4-72.4,10.4c-25.3,0-49.9-4.1-74.8-12.2
			c-75.5-24.7-115-74.4-153.1-122.5c-38.3-48.2-74.4-93.8-143.8-104.6c-63.7-9.9-132.5,12.5-205.8,66.8
			c-17.1,67.7-25.2,141-22.2,216.8l1307.5,12.9c0,0,0-90.8,0-195c-58.3-19.2-117.2-28.8-175.2-28.6
			C1114.6,699.9,1015,750.3,927.1,794.8z"/>
		<path class="st0" d="M1329.7,520.3c-141.9,0.6-249.4,51-344.3,95.4c-52.4,24.6-101.9,47.8-152.3,60.6
			c-27.1,6.9-52.8,10.3-77.9,10.3c-27.2,0-53.7-4.1-80.5-12.2c-81.4-24.6-123.9-74.3-165.1-122.4c-41.3-48.3-80.3-93.9-155.4-104.7
			c-33.1-4.8-67.5-2-103.1,8.1c-49.8,61.3-88.7,139.3-112.3,227.1c72.3-51.8,140.6-72.9,204.1-63c72.1,11.2,109.1,57.8,148.2,107.2
			c37.5,47.3,76.3,96.2,149.8,120.2c101.9,33.2,185.8-9.2,283-58.4c88.6-44.8,189-95.6,322-96.2c0.7,0,1.5,0,2.2,0
			c57.3,0,115.5,9.5,173.1,28.2c0-66.5,0-137.6,0-193.7c-29.8-4.4-59.6-6.6-89.2-6.6C1331.2,520.3,1330.4,520.3,1329.7,520.3z"/>
		<path class="st0" d="M1082.2,440.3c-47.8,26.1-92.9,50.8-139.2,65.1c-27.7,8.6-53.8,12.8-79.6,12.8c-22.6,0-44.9-3.3-67.6-9.9
			c-76.3-22.2-117.3-70.6-157-117.4c-25.5-30.1-50.2-59.2-82.9-78.4c-9.2,2.3-20.4,3.5-34.5,3.2c-7.6-0.2-15.1,0-22.5,0.4
			c-11.4,15.9-22.8,33.3-34.1,52.2c-0.7,1.1-1.8,1.7-3,1.7c-0.6,0-1.2-0.2-1.8-0.5c-1.7-1-2.2-3.1-1.2-4.8
			c10.3-17.2,20.6-33.2,31.1-48c-88,7.8-167.8,55.3-231.1,129.4c33.1-8.3,65.3-10.2,96.4-5.7c77.6,11.2,117.5,57.8,159.7,107.1
			c40.5,47.3,82.4,96.2,161.8,120.2c110.1,33.3,200.8-9.2,305.8-58.4c95.5-44.8,203.8-95.5,347.2-96.1c30.4-0.1,61,2.1,91.6,6.5
			c0-55.9,0-95.2,0-97.2c0-27.7-4.2-57.8-12.3-88.2c-3.7,0.1-7.4,0.1-11.1,0.3C1266.6,339.4,1168.6,393,1082.2,440.3z"/>
	</g>
	<g>
		<path class="st1" d="M1370.9,1006.9H100v-72.4c0-42.2,34.2-76.5,76.5-76.5h1138.6L1370.9,1006.9z"/>
	</g>
</g>
<g id="cloud-3">
	<path class="st2" d="M842.1,377.6h34.7c-0.6-2.1-0.9-4.3-0.9-6.6c0-13.2,10.8-23.9,23.9-23.9h20.1c0.1,0,0.3,0,0.4,0
		c0.1,0,0.3,0,0.4,0h13.5c-0.1-1.2-0.2-2.3-0.2-3.5c0-20.9,16.9-37.8,37.8-37.8c20.9,0,37.8,16.9,37.8,37.8c0,1.2-0.1,2.4-0.2,3.5
		h18c13.2,0,23.9,10.8,23.9,23.9c0,3-0.6,5.9-1.6,8.6h23.9c4.2,0,7.7,3.5,7.7,7.7l0,0c0,4.2-3.5,7.7-7.7,7.7h-39.4h-6.9H920.7h-0.9
		h-8.6h-49.2h-20c-4.8,0-8.7-3.9-8.7-8.7l0,0C833.4,381.5,837.3,377.6,842.1,377.6z"/>
</g>
<g id="cloud-2">
	<path class="st2" d="M191.1,567.4h30.6c-0.5-1.9-0.8-3.8-0.8-5.8c0-11.6,9.5-21.1,21.1-21.1h17.7c0.1,0,0.3,0,0.4,0
		c0.1,0,0.3,0,0.4,0h11.9c-0.1-1-0.1-2.1-0.1-3.1c0-18.5,15-33.4,33.4-33.4c18.5,0,33.4,15,33.4,33.4c0,1-0.1,2.1-0.1,3.1H355
		c11.6,0,21.1,9.5,21.1,21.1c0,2.7-0.5,5.2-1.4,7.6h21.1c3.7,0,6.8,3.1,6.8,6.8l0,0c0,3.7-3.1,6.8-6.8,6.8H361H355h-94.4h-0.8h-7.6
		h-43.4h-17.7c-4.2,0-7.7-3.4-7.7-7.7l0,0C183.5,570.9,186.9,567.4,191.1,567.4z"/>
</g>
<g id="cloud-1">
	<path class="st2" d="M1283,263h-22.5c0.4-1.4,0.6-2.8,0.6-4.3c0-8.5-7-15.5-15.5-15.5h-13c-0.1,0-0.2,0-0.3,0c-0.1,0-0.2,0-0.3,0
		h-8.8c0.1-0.7,0.1-1.5,0.1-2.3c0-13.6-11-24.6-24.6-24.6c-13.6,0-24.6,11-24.6,24.6c0,0.8,0,1.5,0.1,2.3h-11.7
		c-8.5,0-15.5,7-15.5,15.5c0,2,0.4,3.8,1,5.6h-15.5c-2.7,0-5,2.2-5,5l0,0c0,2.7,2.2,5,5,5h25.5h4.5h69.3h0.6h5.6h31.9h13
		c3.1,0,5.6-2.5,5.6-5.6l0,0C1288.7,265.5,1286.1,263,1283,263z"/>
</g>
<g id="mast">
	<g>
		<polygon class="st3" points="1385.9,605.5 1246.4,605.5 1246.4,165.4 		"/>
		<line class="st4" x1="1246.4" y1="93.1" x2="1246.4" y2="838.6"/>
		<polygon class="st3" points="892.3,605.5 1243.2,605.5 1243.2,140.3 		"/>
		<line class="st4" x1="892.3" y1="605.5" x2="1385.9" y2="605.5"/>
	</g>
</g>
<g id="hand-L">
	<g>
		<polygon class="st5" points="512.5,764.1 486,561.6 610.6,488.2 693,743.7 		"/>
		<polygon class="st1" points="492.9,557.6 462.1,306.9 544.9,299.2 603.2,492.6 		"/>
		<g>
			<path class="st6" d="M539.8,359.7l-118.7,16.9l-7.5-52.5l118.7-16.9C544.4,305.5,551.9,358,539.8,359.7z"/>
			<path class="st6" d="M623.9,339.8l-109.5,15.6l-5.2-36.9l109.5-15.6C626.7,301.8,632,338.6,623.9,339.8z"/>
			<path class="st6" d="M676.6,324.8l-95.3,13.6l-3.4-23.7l95.3-13.6C678.9,300.3,682.3,324,676.6,324.8z"/>
			<path class="st6" d="M725.4,312.3l-59.9,8.5l-2-13.9l59.9-8.5C727.8,297.8,729.8,311.7,725.4,312.3z"/>
			
				<ellipse transform="matrix(0.99 -0.1409 0.1409 0.99 -45.1868 62.2889)" class="st6" cx="417.4" cy="350.3" rx="22.5" ry="32.9"/>
			
				<ellipse transform="matrix(0.99 -0.1409 0.1409 0.99 -45.1868 62.2889)" class="st3" cx="417.4" cy="350.3" rx="14.3" ry="20.9"/>
			<path class="st4" d="M540.5,315.7c0,0,6.5,17.8,4.6,32.7"/>
			<path class="st4" d="M438.8,330.2c0,0,6.5,17.8,4.6,32.7"/>
			<path class="st4" d="M625.7,312.3c0,0,3.1,8.5,2.2,15.6"/>
			<path class="st4" d="M678.2,307.7c0,0,2,5.4,1.4,9.9"/>
		</g>
		<path class="st1" d="M464.8,314.2l9.6,15.5c4.7,7.6,13.8,11.2,22.4,8.9l48.9-3c12-3.2,18.8-26.4,13.8-37.8l-8.8-20.1
			c-4.2-9.7-15.3-14.5-25.3-11l-50.2,17.7C463.1,288.8,458,303.2,464.8,314.2z"/>
		<polygon class="st1" points="543.7,269.2 576.7,308.7 549.6,312.6 		"/>
		<polyline class="st4" points="486,299.8 496.7,328.3 499.2,337.5 		"/>
		<line class="st4" x1="509.8" y1="294.7" x2="523.5" y2="336.8"/>
		<path class="st4" d="M529.6,289.4l7.5,17.7c3.2,7.6,4.7,15.8,4.3,24l-0.2,4.8"/>
		<line class="st4" x1="554.6" y1="287" x2="561.2" y2="310.9"/>
		<line class="st7" x1="523.5" y1="580.4" x2="596.3" y2="540.3"/>
	</g>
</g>
<g id="body">
	<g>
		<path class="st3" d="M755.4,364.2c34.2-23.3,72.3-26.4,115-5.4l64.2,373.5H744L755.4,364.2z"/>
		<path class="st5" d="M568.9,734.4h206.3l-12.7-377.1c0,0-34.1,17.3-81.6,87.7l-66.3,98.4C561.2,631.9,568.9,734.4,568.9,734.4z"/>
		<line class="st8" x1="702.2" y1="533.1" x2="708.3" y2="641.3"/>
		<path class="st5" d="M839.3,347.6l5.8,385.4h270.4C1115.5,732.9,1068.4,389.4,839.3,347.6z"/>
		<line class="st7" x1="740.4" y1="411.7" x2="744" y2="519.5"/>
		<line class="st7" x1="881" y1="482.1" x2="925.4" y2="605.5"/>
		<line class="st7" x1="869.9" y1="510.9" x2="899.8" y2="534.4"/>
	</g>
</g>
<g id="head">
	<g>
		<g>
			<path class="st6" d="M824.3,270.8c1.1,1.6,1.7,3.7,1.7,6.3c-0.4,10.4-5.2,17.3-5.2,17.3l-67.2,7.9c0,0-16.1-10.4-2.2-38.4
				L824.3,270.8z"/>
			<path class="st1" d="M812,312.6c7.3-1.1,12.8-7.6,12.3-15.3c-0.4-6.7-5.6-12.3-12.2-13.3c-3.4-0.5-6.6,0.2-9.3,1.7l0,0
				c-4.6-4.2-10.6-6.7-16.9-7l-24.7-1c0,0-1.4,3.3-3,8.3c-0.8-0.2-1.6-0.3-2.5-0.3c-8-0.1-14.6,6.3-14.7,14.3
				c-0.1,6.9,4.6,12.7,11,14.2c-0.4,6.6,0.3,12.6,3,16.7c9.7,14.6,25.3,4.9,25.3,4.9l0.2,26.2c0,5.5,2.7,14.3,12.1,14.3
				c16.7,0,26.4-15.7,30.2-28.8L812,312.6z"/>
			<polyline class="st9" points="773.6,293.7 767.9,307.2 772.5,307.3 			"/>
			<path class="st9" d="M778.4,314.1c-2.2,2.2-4.9,3.4-8.7,3"/>
			<path class="st9" d="M807.2,296.4c0,0,1.9-3.6,9.1-3.5"/>
			<path class="st9" d="M812.5,301.9c0,0,2.8-5.4-3.5-7.3"/>
			<path class="st9" d="M754.7,299c0,0-0.5-4-7.3-6.4"/>
			<path class="st9" d="M747.7,302.3c0,0-0.7-6,5.8-5.6"/>
			<path class="st5" d="M780,335.8c0,0,8-4.4,12.7-11.2c0,0-2.7,18-12.3,19.1L780,335.8z"/>
			<path class="st9" d="M785.6,291.8c0,0-3.5-1.8-7.5-1.5"/>
			<path class="st9" d="M767.4,294.4c0,0-2.3-0.8-4.8,0.1"/>
			<path class="st9" d="M767.5,293.5c0,0-1.5-1.9-4.1-2.5"/>
			<circle class="st5" cx="781.5" cy="297.1" r="2.5"/>
		</g>
		<path class="st3" d="M740.6,263.8c0,0-12.9-38.6,25.8-36.5c38.6,2.2,26.1,26,44.9,28.4c18.8,2.4,18.7,22.6,18.7,22.6L740.6,263.8z
			"/>
		<path class="st5" d="M735.7,265.3l4.9-1.5l89.4,14.6c0,0-67.9,4.9-94.4-3.5C730.8,273.3,730.9,266.7,735.7,265.3z"/>
		<g>
			<path class="st1" d="M828.9,278.7c-0.1,0-0.2,0-0.3,0l-89.4-14.6c-1.1-0.2-1.8-1.2-1.6-2.2c0.2-1.1,1.2-1.8,2.2-1.6l89.4,14.6
				c1.1,0.2,1.8,1.2,1.6,2.2C830.7,278.1,829.8,278.7,828.9,278.7z"/>
		</g>
		<circle class="st2" cx="759.2" cy="249.7" r="6.2"/>
	</g>
</g>
<g id="rudder">
	<path class="st6" d="M831.2,707.3h-46.7c-1.9-35.2-15.7-67.3-37.5-92.3l32.5-32.5c3.4-3.4,3.4-8.9,0-12.3v0
		c-3.4-3.4-8.9-3.4-12.3,0l-32.3,32.3c-24.8-22.7-57-37.3-92.5-39.8v-44.2c0-4.8-3.9-8.7-8.7-8.7h0c-4.8,0-8.7,3.9-8.7,8.7v44
		c-36.1,1.5-69,15.6-94.5,38l-30.3-30.3c-3.4-3.4-8.9-3.4-12.3,0v0c-3.4,3.4-3.4,8.9,0,12.3l30.2,30.2
		C495,638,480.4,671,478.5,707.3H436c-4.8,0-8.7,3.9-8.7,8.7c0,4.8,3.9,8.7,8.7,8.7h42.5c2.2,36.2,16.9,69,39.9,94.1l-30.7,30.7
		c-3.4,3.4-3.4,8.9,0,12.3s8.9,3.4,12.3,0l30.8-30.8c25.4,22.1,58.1,36,94,37.6v45c0,4.8,3.9,8.7,8.7,8.7h0c4.8,0,8.7-3.9,8.7-8.7
		v-45.2c35.3-2.5,67.3-16.9,92-39.3l32.8,32.8c3.4,3.4,8.9,3.4,12.3,0s3.4-8.9,0-12.3l-32.9-32.9c21.8-24.8,35.8-56.8,37.9-91.9
		h46.7c4.8,0,8.7-3.9,8.7-8.7C839.9,711.2,836,707.3,831.2,707.3z M766.5,707.3h-95c-1-4.3-2.7-8.3-4.9-11.9l67.7-67.7
		C752.8,649.4,764.7,677,766.5,707.3z M722.1,615.2L654.3,683c-3.6-2.3-7.6-4-11.9-4.9v-97.4C672.9,583.2,700.6,595.8,722.1,615.2z
		 M624.9,580.4v97.6c-4.3,1-8.3,2.7-11.9,4.9l-69.8-69.8C565.3,594,593.7,582,624.9,580.4z M530.7,625.4l69.9,69.9
		c-2.3,3.6-4,7.6-4.9,11.9h-99.2C498.4,675.9,511,647.5,530.7,625.4z M496.6,724.7h99.1c1,4.3,2.7,8.3,4.9,11.9l-69.5,69.5
		C511.4,784.3,498.7,755.9,496.6,724.7z M543.7,818.3L613,749c3.6,2.3,7.6,4,11.9,4.9v96.7C594,849.1,565.8,837.2,543.7,818.3z
		 M642.4,850.3v-96.4c4.3-1,8.3-2.7,11.9-4.9l67.3,67.3C700.2,835.5,672.7,847.9,642.4,850.3z M733.8,803.9l-67.2-67.2
		c2.3-3.6,4-7.6,4.9-11.9h94.9C764.4,754.9,752.5,782.3,733.8,803.9z"/>
</g>
<g id="hand-R">
	<g>
		<path class="st1" d="M736.9,559.4l36.6-33.4c4.3-3.9,8.7-3.5,16.9,2.2c10.7,7.4,12.9-11,35.6,13.2l26.7,29.8l256.1,193
			l-181.9,30.4l-193-196.1C724.4,586.9,725.7,569.7,736.9,559.4z"/>
		<line class="st4" x1="732.2" y1="564.6" x2="752.7" y2="585.6"/>
		<line class="st4" x1="747.8" y1="549.5" x2="768.3" y2="570.5"/>
		<line class="st4" x1="766.3" y1="532.8" x2="786.8" y2="553.9"/>
		<line class="st4" x1="790.4" y1="528.2" x2="815" y2="545.8"/>
	</g>
</g>
<g id="boat">
	<g>
		<path class="st10" d="M1423.6,1006.9l-956.9-7.5c-147.2,0-266.5-119.3-266.5-266.5v0h1219.6L1423.6,1006.9z"/>
		<line class="st4" x1="240" y1="798.4" x2="782" y2="798.4"/>
		<line class="st4" x1="873.4" y1="797.8" x2="1352.2" y2="797.8"/>
		<line class="st4" x1="573.1" y1="863.8" x2="906.7" y2="863.8"/>
		<line class="st4" x1="1064.3" y1="863.8" x2="1178.8" y2="863.8"/>
		<line class="st4" x1="356.7" y1="929.2" x2="759.6" y2="929.2"/>
		<line class="st4" x1="875" y1="929.2" x2="1016" y2="929.2"/>
		<line class="st4" x1="1202.5" y1="929.2" x2="1367.8" y2="929.2"/>
		<line class="st4" x1="1429.5" y1="732.4" x2="179.7" y2="732.4"/>
	</g>
</g>
<g id="wave">
	<g>
		<path class="st1" d="M121.4,971.3c0,0,64.4-76.2,193.1-38.9c128.7,37.2,180.6-39.1,287.9-10.3c107.3,28.9,160.9,79.7,240.6,30.6
			c79.6-49.1,175.3-44.3,268-13.5c81.9,27.2,153.2-64.9,269.9-23.7c73.7,26,119.1,91.4,119.1,91.4H100L121.4,971.3z"/>
	</g>
</g>
</svg>
