<?xml version="1.0" encoding="utf-8"?>
<!-- Generator: Adobe Illustrator 24.1.2, SVG Export Plug-In . SVG Version: 6.00 Build 0)  -->
<svg version="1.1" xmlns="http://www.w3.org/2000/svg" xmlns:xlink="http://www.w3.org/1999/xlink" x="0px" y="0px"
	 viewBox="0 0 1600 1600" style="enable-background:new 0 0 1600 1600;" xml:space="preserve">
<style type="text/css">
	.st0{fill:#FFF0F0;}
	.st1{fill:#BBD3F9;}
	.st2{fill:#FF9494;}
	.st3{fill:none;stroke:#0B1E5B;stroke-width:2.5;stroke-linecap:round;stroke-linejoin:round;stroke-miterlimit:10;}
	.st4{fill:#7DACEF;}
	.st5{fill:#0B1E5B;}
	.st6{fill:#FFFFFF;}
	.st7{fill:none;stroke:#BBD3F9;stroke-width:2.5;stroke-linecap:round;stroke-linejoin:round;stroke-miterlimit:10;}
	.st8{fill:none;stroke:#FFFFFF;stroke-width:15;stroke-miterlimit:10;}
	.st9{fill:#F77777;}
	.st10{fill:none;stroke:#0B1E5B;stroke-width:1.5;stroke-linecap:round;stroke-linejoin:round;stroke-miterlimit:10;}
</style>
<g id="background">
	<g>
		<path class="st0" d="M678.8,748.2c57.7,13.4,96.5-8.5,161.7-62.7c30-25,55.1-34.9,78.9-31.2c21.7,3.3,39.7,17.1,60.5,33
			c16.5,12.6,35.2,26.9,58.1,37.2c11,4.9,21.9,6.3,32.6,5.1c0.1-1.9,0.1-3.8,0.1-5.7c0.3-112.3-89.4-202.9-201.7-203.6
			c-112.8-0.7-204.4,90.4-204.4,203c0,6.9,0.4,13.8,1,20.6C669.7,745.6,674.1,747.1,678.8,748.2z"/>
		<path class="st0" d="M744.9,949.6c30,7,49.6-6.7,74.4-24c22.9-16,48.9-34.1,89.3-39.6c42.3-5.8,71,6.7,98.8,18.8
			c26.6,11.6,54.1,23.5,94.8,20.7c30.7-2.1,61-12,90.5-29.4c-16.4-10.4-33.6-19.7-51.4-27.7c-47.9-21.5-77.2-71.5-71.7-123.8
			c0.2-2.3,0.4-4.6,0.6-6.9c-2.2,0.2-4.3,0.3-6.5,0.3c-9.4,0-19.1-1.9-28.9-6.3c-23.8-10.7-42.9-25.2-59.7-38.1
			c-20-15.3-37.2-28.5-56.9-31.5c-21.4-3.3-44.5,6.1-72.6,29.5C778.4,747.6,738,770.2,677,756c-3.6-0.8-7-1.9-10.2-3.1
			c3.7,25,11.9,48.5,23.8,69.7c17.6,31.2,20.5,67.7,9.5,100C712.2,933.6,724.7,944.9,744.9,949.6z"/>
		<path class="st0" d="M1241.7,1124.9c-57.4,3.9-95.7-12.7-132.7-28.8c-38.1-16.5-74.1-32.2-128.6-24.7c-52.4,7.2-86.5,31-116.7,52
			c-27.8,19.4-52.5,36.7-85,36.7c-7.3,0-15-0.9-23.2-2.8c-24-5.6-41.6-17.1-60.3-29.4c-29.2-19.1-59.5-38.9-118.9-39.6
			c-0.1,0-0.2,0-0.3,0c-0.7-0.1-74.7-6.2-153.8,42.9c-24.3,15.1-54.5,18.3-89.8,9.6c-27.7-6.8-58.7-21.1-91.9-42.3
			c-12.6-8-24.6-16.5-35.6-24.8c-59.3,59-95.7,140.9-94.9,230.8c0.3,30,4.7,59.1,12.7,86.6h1229.6c18.8-46.8,29.2-98,29.2-151.6
			c0-52-9.8-101.8-27.6-147.5C1317.3,1111.2,1279.8,1122.3,1241.7,1124.9z"/>
		<path class="st0" d="M244.9,1091.7c32.5,20.8,62.6,34.6,89.5,41.3c33,8.1,61.1,5.2,83.6-8.7c42.6-26.4,83.4-36.9,110.1-41.2
			c27.9-4.4,46.4-3,48.5-2.9c61.7,0.7,94.3,22,123,40.9c18.1,11.8,35.2,23,57.8,28.3c41.3,9.6,68-9,101.8-32.6
			c30.9-21.5,65.8-45.9,120.2-53.4c56.8-7.8,93.8,8.3,132.9,25.3c36.1,15.7,73.5,31.9,129,28.1c37.2-2.5,73.8-13.4,109.7-32.5
			c-31-75.1-83.9-138.9-150.7-183.5c-31.6,19.3-64.2,30.3-97.4,32.5c-42.7,2.9-71.1-9.4-98.6-21.4c-28-12.2-54.5-23.7-94.5-18.2
			c-38.5,5.3-63.6,22.8-85.8,38.3c-20.7,14.4-39.1,27.3-63.4,27.3c-5.5,0-11.3-0.7-17.4-2.1c-20.9-4.9-34.4-16.2-46-26.7
			c-5.2,12.3-12.5,23.9-22,34.2c-0.7,0.8-1.5,1.6-2.2,2.4c-32.9,36.5-84.9,49-131,32.1c-36.4-13.3-75.9-20.3-117.1-19.4
			c-82.9,1.7-158,34.9-214.1,88C221.3,1075.9,232.8,1084,244.9,1091.7z"/>
	</g>
</g>
<g id="arm-left">
	<path class="st1" d="M968.8,361.2c4.5-20.7-10.3-40.7-31.5-42.4h0c-15.6-1.3-30.1,7.9-35.6,22.6l-59.2,156.7l0,0
		c-2.3,5.6-3.6,11.7-3.6,18.2c0,26.3,21.3,47.6,47.6,47.6c23,0,42.2-16.3,46.6-37.9l0,0l0-0.1c0,0,0-0.1,0-0.1L968.8,361.2z"/>
</g>
<g id="trophy">
	<path class="st1" d="M971.2,350.2l29-36l-29-44l-33.9,29.1l-38.9,50.9C893.6,380,963.3,386.8,971.2,350.2z"/>
	<g>
		<path class="st2" d="M1001,335.5l-9.7,3.6l-2.8-5.6c-2.8-5.5-9.2-8.1-15-5.9l-0.9-2.5l-10.2-27.7c5.2-14.6,9.7-43.2-7-88.4
			L924,220.4l-0.2,0.1L892.4,232c16.7,45.2,38.6,64.1,52,71.8l10.2,27.7l0.9,2.5c-5.8,2.1-9.1,8.3-7.6,14.3l1.5,6.1l-9.7,3.6
			c-6.3,2.3-9.5,9.3-7.2,15.6l0.5,1.3l41.9-15.4l0.2-0.1l41.9-15.4l-0.5-1.3C1014.3,336.4,1007.3,333.1,1001,335.5z"/>
		<g>
			<path class="st2" d="M918.7,304.9c-9.1,0-18.2-2-26.8-5.9c-15.5-7.2-27.3-19.9-33.2-35.9l-1.8-4.9l40.2-14.8l2.8,7.5l-32.6,12
				c5.4,12.8,15.3,23,28,28.9c13.6,6.3,28.7,6.9,42.7,1.7l8.2-3l2.8,7.5l-8.2,3C933.6,303.6,926.2,304.9,918.7,304.9z"/>
		</g>
		<g>
			<path class="st2" d="M952.2,296.7l-2.8-7.5l8.2-3c14-5.2,25.2-15.5,31.4-29c5.9-12.7,6.8-26.9,2.6-40.2l-32.6,12l-2.8-7.5
				l40.2-14.8l1.8,4.9c5.9,16,5.2,33.4-2,48.9c-7.2,15.5-19.9,27.3-35.9,33.2L952.2,296.7z"/>
		</g>
	</g>
	<path class="st1" d="M898.4,350.2l14.1-53l28.4-26.9c0,0,8.5,9.9-3.5,29.1l6.5,50.9H898.4z"/>
	<path class="st1" d="M971.2,270.2l-13.6,21.2c-2.9,4.5-3.9,9.9-2.8,15.1c0.6,3,1.6,6.5,3.2,10.2c5.3,12.3,19.4,18.3,32,13.7v0
		c7.9-2.9,12.2-11.3,10.1-19.4C995.5,293.2,986,265.9,971.2,270.2z"/>
	<line class="st3" x1="978.5" y1="287.2" x2="954.8" y2="306.5"/>
	<line class="st3" x1="984.1" y1="302.7" x2="958" y2="316.7"/>
	<line class="st3" x1="988" y1="316.7" x2="966.6" y2="327.3"/>
	<polyline class="st3" points="942.8,287.2 934.2,309.7 940,341.2 	"/>
	<line class="st3" x1="947.7" y1="325.6" x2="938.5" y2="330.3"/>
	<line class="st3" x1="895.4" y1="239.5" x2="906" y2="261.7"/>
	<path class="st3" d="M963.8,237.5c0,0,3.4,13.7,2.8,31.5"/>
	<line class="st3" x1="955.6" y1="334.1" x2="961.5" y2="331.9"/>
	<line class="st3" x1="949.5" y1="354.4" x2="972.9" y2="347"/>
</g>
<g id="Layer_1">
	<path class="st1" d="M443.6,614.1l84.9-83.4l60,71.3l-77.5,79.4c-18.3,18.8-48.5,19.2-67.3,0.9l0,0
		C424.4,663.5,424.4,632.8,443.6,614.1z"/>
	<path class="st1" d="M675.2,951.8l-10,43.2c-8,30.6-25.5,52.6-44.1,78.2l-128.5,176.5l-72.4-3.1c0,0,57.1-191.6,112.6-231.9l9-77.4
		l69.2,8"/>
	<path class="st1" d="M976.9,817.1L947.4,1089h-88.9c0,0-15.4-195,8.8-230l73.3-3.1"/>
	<path class="st1" d="M812.2,750.3h94.5c46.1,0,79.6,43.7,67.7,88.2l-8,29.9H736.2L812.2,750.3z"/>
	<path class="st1" d="M886.6,563.9H736.2l18.5-95.3h131.8c26.3,0,47.6,21.3,47.6,47.6v0C934.2,542.5,912.9,563.9,886.6,563.9z"/>
	<path class="st4" d="M679.1,463.8l102.5,0.8c5.2,0,9.8,3.6,11.2,8.7l23.4,87.7c1.6,6.1-3,12.1-9.3,12.1h-76.9L679.1,463.8z"/>
	<path class="st4" d="M796.1,742.4l-215.5,0c0,0-32.7-266.4,86.7-278.3C796.1,451.2,796.1,742.4,796.1,742.4z"/>
	<path class="st5" d="M689.9,942.7l69.3-200.3H580.6l-56.8,186.2c-2.8,9.3,3.9,18.9,13.7,19.2l137.8,4.8
		C681.9,952.9,687.8,948.8,689.9,942.7z"/>
	<polygon class="st1" points="415.8,1264.1 493.4,1264.1 516.3,1211.2 439.9,1209.3 	"/>
	<polygon class="st6" points="556.7,1163.3 454.9,1137.5 394.8,1267.8 493.4,1264.1 	"/>
	<path class="st5" d="M954.6,1089l40.2,14.6l66.3,11.9c14.6,2.6,25.2,15.3,25.2,30.2l0,0H855.8c-15.9,0-26.1-16.8-18.8-30.9
		l13.4-25.8H954.6z"/>
	<polygon class="st6" points="964.5,1012.3 847.3,1012.3 850.5,1089 960.5,1089 	"/>
	<path class="st5" d="M965.7,1096.3l-5,13.8h-32.3v-19.3c0-7.9,6.7-14.1,14.6-13.5l11.1,0.9C962.9,1079,968.7,1087.9,965.7,1096.3z"
		/>
	<line class="st7" x1="1015.8" y1="1104.2" x2="991.8" y2="1120.1"/>
	<line class="st7" x1="998" y1="1099.3" x2="974" y2="1115.2"/>
	<line class="st7" x1="981" y1="1094.1" x2="956.9" y2="1109.9"/>
	<path class="st5" d="M508.6,1237.3l40.2,14.6l39.7,10.9c12.1,3.3,20.4,14.3,20.4,26.8v4.5H409.7c-15.9,0-26.1-16.8-18.8-30.9
		l13.4-25.8H508.6z"/>
	<path class="st5" d="M519.6,1244.6l-5,13.8h-32.3v-19.3c0-7.9,6.7-14.1,14.6-13.5l11.1,0.9C516.9,1227.3,522.6,1236.3,519.6,1244.6
		z"/>
	<line class="st7" x1="569.8" y1="1252.5" x2="545.7" y2="1268.4"/>
	<line class="st7" x1="552" y1="1247.6" x2="527.9" y2="1263.5"/>
	<line class="st7" x1="534.9" y1="1242.4" x2="510.8" y2="1258.2"/>
	<path class="st4" d="M675.5,465c0,0-72.8-15.1-156.1,54.8c-6.2,5.2-7.1,14.5-2,20.8l61.6,76.2L675.5,465z"/>
	<line class="st3" x1="756.1" y1="518.4" x2="773.5" y2="573.1"/>
	<path class="st5" d="M701.6,877.2l109.9,2.5c4.7,0.1,8.8-2.9,10.2-7.3L859.9,750c2.1-6.9-3.2-13.8-10.4-13.5l-141.9,5.9
		L701.6,877.2z"/>
	<line class="st3" x1="612.6" y1="563.9" x2="578.9" y2="616.9"/>
	<path class="st3" d="M661.8,481.7c0,0,18.6,11.4,31.8-3.2"/>
	<line class="st7" x1="722.8" y1="847.7" x2="712.2" y2="878.3"/>
	<path class="st3" d="M611.2,997.8c0,0,17.5,26.5,38.5,0"/>
	<line class="st3" x1="459.7" y1="1150.4" x2="534.9" y2="1174.4"/>
	<line class="st3" x1="454.2" y1="1167.3" x2="527.9" y2="1189.9"/>
	<line class="st3" x1="860.3" y1="1022.1" x2="951.8" y2="1022.1"/>
	<line class="st3" x1="860.3" y1="1038.6" x2="951.8" y2="1038.6"/>
	<line class="st7" x1="560.6" y1="924.5" x2="571.4" y2="879.7"/>
	<line class="st7" x1="605.3" y1="753.8" x2="600.4" y2="776.7"/>
	<line class="st7" x1="745.8" y1="809.3" x2="825.9" y2="809.3"/>
	<line class="st3" x1="532.6" y1="1014.7" x2="547.6" y2="1003.7"/>
	<line class="st3" x1="878.1" y1="843.9" x2="862.9" y2="868.4"/>
	<path class="st3" d="M928.4,793.3c0,0,20.1,33.8,38.1,5.6"/>
	<g>
		<rect x="682.9" y="1145.7" class="st2" width="497.9" height="151.5"/>
		<rect x="355.1" y="1294" class="st2" width="1154.9" height="97"/>
		<line class="st3" x1="624.8" y1="1294" x2="937.4" y2="1294"/>
		<line class="st3" x1="986" y1="1294" x2="1213" y2="1294"/>
		<polyline class="st8" points="896.9,1225.7 920.8,1249.6 977,1193.3 		"/>
	</g>
	<line class="st3" x1="853.7" y1="468.6" x2="862.1" y2="482.2"/>
</g>
<g id="arm-right">
	<path class="st1" d="M541.7,831.5l13.3,24.5c5.3,9.7,16.6,14.5,27.3,11.4l25.6-7.4c15.2-4.4,21.9-22.3,13.2-35.6l-31.4-47.8
		L541.7,831.5z"/>
	<line class="st3" x1="571.4" y1="847.7" x2="581.2" y2="867.4"/>
	<line class="st3" x1="587.1" y1="843.3" x2="596.9" y2="863"/>
	<line class="st3" x1="600.4" y1="839.4" x2="610.2" y2="859.2"/>
	<line class="st3" x1="609.5" y1="824.8" x2="621.6" y2="849.3"/>
	<path class="st1" d="M589.6,776.7l-71.8-147.4l0,0c-7.5-15.5-23.4-26.3-41.8-26.3c-25.6,0-46.3,20.7-46.3,46.3
		c0,11.2,4,21.5,10.6,29.5l101.3,152.6l29.8-23.4L589.6,776.7z"/>
	<line class="st3" x1="532.4" y1="659.2" x2="514.1" y2="650.7"/>
</g>
<g id="head">
	<g>
		<path class="st9" d="M663,421.7c-6.5-2.6-8.1,5.5-8.1,5.5c1.5-8.3,6.4-7.1,8.5-6.2c-1.6-1.4-5-5.5,2.1-10.4c0,0-6.9,5-1.4,9.9
			c-1.1-1.3-2.5-3.9,0.6-7c4.4-4.4,10.3-0.3,11.7-0.6c1.4-0.3,0.9-7.1,7-6c6.1,1.1,5.5,0.3,7.8-2.7c0.1-0.2,0.3-0.3,0.4-0.4
			c1.6-1.8,5.2-4.2,10,1.9c0,0-3.8-4.6-7.7-2.6c2.5,0.3,5.5,3.5,6.7,10.4c1.7,10-4.6,19.2-4.6,19.2l-36.1,3.7c0,0-2.8-2.7-3.9-7.3
			C654.8,424.2,660,422.4,663,421.7z"/>
		<path class="st1" d="M665.6,443.8c-3.4,0.2-6.5-2.2-7-5.8c-0.4-3.1,1.4-6.1,4.3-7.2c1.5-0.6,3-0.5,4.4-0.1l0,0
			c1.7-2.4,4.2-4,7-4.7l11.1-2.7c0,0,0.9,1.4,2.2,3.5c0.4-0.1,0.7-0.3,1.1-0.4c3.6-0.8,7.2,1.5,8,5.1c0.7,3.1-0.9,6.2-3.7,7.5
			c0.8,2.9,1,5.7,0.2,7.9c-3.1,7.5-11,4.6-11,4.6l5.5,22.1c0,0-12.1,11.5-26.4-0.6L665.6,443.8z"/>
		<polyline class="st10" points="681.3,431.7 685.1,437.3 683,437.7 		"/>
		<path class="st10" d="M666.3,436c0,0-1.2-1.5-4.4-0.7"/>
		<path class="st10" d="M664.4,439c0,0-1.8-2.2,0.9-3.6"/>
		<path class="st10" d="M693,428.7c-2.9,1.7-2.7,3.6-2.7,3.6"/>
		<path class="st10" d="M690.6,431.2c2.9-0.8,3.2,2,3.2,2"/>
		<path class="st5" d="M682.2,451.4c0,0-4-1.3-6.8-3.9c0,0,2.9,7.9,7.3,7.5L682.2,451.4z"/>
		<path class="st10" d="M683.3,429.2c0,0,1.7-0.7,3.5-0.4"/>
		<circle class="st5" cx="685.7" cy="431.4" r="1"/>
		<path class="st10" d="M675.7,432.6c0,0,1.2-1.4,3-1.9"/>
		<circle class="st5" cx="678" cy="434" r="1"/>
		<path class="st10" d="M684.7,441.5l-5.5-0.9C679.1,440.6,680,447.9,684.7,441.5z"/>
	</g>
</g>
</svg>
